solid ko-front-delete-02
facet normal -3.268315214479992e-17 -1.0 3.021392659872747e-16
  outer loop
    vertex 44.0 -2.9000000000000004 30.0
    vertex 0.8590191353900615 -2.9000000000000012 22.835
    vertex 44.0 -2.9000000000000012 22.835
  endloop
endfacet
facet normal -3.268315214479992e-17 -1.0 3.021392659872747e-16
  outer loop
    vertex 0.8590191353900615 -2.9000000000000012 22.835
    vertex 44.0 -2.9000000000000004 30.0
    vertex 0.8590191353900618 -2.8999999999999977 30.0
  endloop
endfacet
facet normal 0.0 1.0 0.0
  outer loop
    vertex 1.9999999999999984 3.5 30.0
    vertex 28.000000000000004 3.5 8.81239525796218e-17
    vertex 1.9999999999999984 3.5 8.81239525796218e-17
  endloop
endfacet
facet normal 0.0 1.0 0.0
  outer loop
    vertex 28.000000000000004 3.5 8.81239525796218e-17
    vertex 1.9999999999999984 3.5 30.0
    vertex 28.000000000000004 3.5 30.0
  endloop
endfacet
facet normal -1.0 0.0 0.0
  outer loop
    vertex 1.9999999999999984 3.5 30.0
    vertex 1.9999999999999984 1.6500000000000001 25.0
    vertex 1.9999999999999984 1.6500000000000001 30.0
  endloop
endfacet
facet normal -1.0 0.0 0.0
  outer loop
    vertex 1.9999999999999984 1.6500000000000001 25.0
    vertex 1.9999999999999984 3.5 30.0
    vertex 1.9999999999999984 1.6500000000000001 5.000000000000002
  endloop
endfacet
facet normal -1.0 0.0 0.0
  outer loop
    vertex 1.9999999999999984 1.6500000000000001 5.000000000000002
    vertex 1.9999999999999984 3.5 30.0
    vertex 1.9999999999999984 1.6500000000000001 8.81239525796218e-17
  endloop
endfacet
facet normal -1.0 0.0 0.0
  outer loop
    vertex 1.9999999999999984 1.6500000000000001 8.81239525796218e-17
    vertex 1.9999999999999984 3.5 30.0
    vertex 1.9999999999999984 3.5 8.81239525796218e-17
  endloop
endfacet
facet normal -1.0 0.0 0.0
  outer loop
    vertex 1.9999999999999984 1.6500000000000001 25.0
    vertex 1.9999999999999984 0.0 5.000000000000002
    vertex 1.9999999999999984 0.0 25.0
  endloop
endfacet
facet normal -1.0 0.0 0.0
  outer loop
    vertex 1.9999999999999984 0.0 5.000000000000002
    vertex 1.9999999999999984 1.6500000000000001 25.0
    vertex 1.9999999999999984 1.6500000000000001 5.000000000000002
  endloop
endfacet
facet normal 1.0 0.0 0.0
  outer loop
    vertex 28.000000000000004 3.5 8.81239525796218e-17
    vertex 28.000000000000004 1.6500000000000001 5.000000000000002
    vertex 28.000000000000004 1.6500000000000001 8.81239525796218e-17
  endloop
endfacet
facet normal 1.0 0.0 0.0
  outer loop
    vertex 28.000000000000004 1.6500000000000001 5.000000000000002
    vertex 28.000000000000004 3.5 8.81239525796218e-17
    vertex 28.000000000000004 1.6500000000000001 25.0
  endloop
endfacet
facet normal 1.0 0.0 0.0
  outer loop
    vertex 28.000000000000004 1.6500000000000001 25.0
    vertex 28.000000000000004 3.5 8.81239525796218e-17
    vertex 28.000000000000004 1.6500000000000001 30.0
  endloop
endfacet
facet normal 1.0 0.0 0.0
  outer loop
    vertex 28.000000000000004 1.6500000000000001 30.0
    vertex 28.000000000000004 3.5 8.81239525796218e-17
    vertex 28.000000000000004 3.5 30.0
  endloop
endfacet
facet normal 1.0 0.0 0.0
  outer loop
    vertex 28.000000000000004 1.6500000000000001 5.000000000000002
    vertex 28.000000000000004 0.0 25.0
    vertex 28.000000000000004 0.0 5.000000000000002
  endloop
endfacet
facet normal 1.0 0.0 0.0
  outer loop
    vertex 28.000000000000004 0.0 25.0
    vertex 28.000000000000004 1.6500000000000001 5.000000000000002
    vertex 28.000000000000004 1.6500000000000001 25.0
  endloop
endfacet
facet normal 0.0 0.0 -1.0
  outer loop
    vertex 28.000000000000004 1.6500000000000001 5.000000000000002
    vertex 1.9999999999999984 0.0 5.000000000000002
    vertex 1.9999999999999984 1.6500000000000001 5.000000000000002
  endloop
endfacet
facet normal 0.0 0.0 -1.0
  outer loop
    vertex 1.9999999999999984 0.0 5.000000000000002
    vertex 28.000000000000004 1.6500000000000001 5.000000000000002
    vertex 28.000000000000004 0.0 5.000000000000002
  endloop
endfacet
facet normal -0.0 -0.0 1.0
  outer loop
    vertex 28.000000000000004 0.0 25.0
    vertex 1.9999999999999984 1.6500000000000001 25.0
    vertex 1.9999999999999984 0.0 25.0
  endloop
endfacet
facet normal -0.0 -0.0 1.0
  outer loop
    vertex 1.9999999999999984 1.6500000000000001 25.0
    vertex 28.000000000000004 0.0 25.0
    vertex 28.000000000000004 1.6500000000000001 25.0
  endloop
endfacet
facet normal 0.0 0.0 -1.0
  outer loop
    vertex 28.000000000000004 3.5 8.81239525796218e-17
    vertex 1.9999999999999984 1.6500000000000001 8.81239525796218e-17
    vertex 1.9999999999999984 3.5 8.81239525796218e-17
  endloop
endfacet
facet normal 0.0 0.0 -1.0
  outer loop
    vertex 1.9999999999999984 1.6500000000000001 8.81239525796218e-17
    vertex 28.000000000000004 3.5 8.81239525796218e-17
    vertex 28.000000000000004 1.6500000000000001 8.81239525796218e-17
  endloop
endfacet
facet normal -0.0 -1.0 -0.0
  outer loop
    vertex 28.000000000000004 1.6500000000000001 5.000000000000002
    vertex 1.9999999999999984 1.6500000000000001 8.81239525796218e-17
    vertex 28.000000000000004 1.6500000000000001 8.81239525796218e-17
  endloop
endfacet
facet normal -0.0 -1.0 -0.0
  outer loop
    vertex 1.9999999999999984 1.6500000000000001 8.81239525796218e-17
    vertex 28.000000000000004 1.6500000000000001 5.000000000000002
    vertex 1.9999999999999984 1.6500000000000001 5.000000000000002
  endloop
endfacet
facet normal 0.0 0.0 1.0
  outer loop
    vertex 28.000000000000004 1.6500000000000001 30.0
    vertex 1.9999999999999984 3.5 30.0
    vertex 1.9999999999999984 1.6500000000000001 30.0
  endloop
endfacet
facet normal 0.0 0.0 1.0
  outer loop
    vertex 1.9999999999999984 3.5 30.0
    vertex 28.000000000000004 1.6500000000000001 30.0
    vertex 28.000000000000004 3.5 30.0
  endloop
endfacet
facet normal 0.0 -1.0 0.0
  outer loop
    vertex 28.000000000000004 1.6500000000000001 30.0
    vertex 1.9999999999999984 1.6500000000000001 25.0
    vertex 28.000000000000004 1.6500000000000001 25.0
  endloop
endfacet
facet normal 0.0 -1.0 0.0
  outer loop
    vertex 1.9999999999999984 1.6500000000000001 25.0
    vertex 28.000000000000004 1.6500000000000001 30.0
    vertex 1.9999999999999984 1.6500000000000001 30.0
  endloop
endfacet
facet normal -5.719551625339986e-17 -1.0 -4.532088989809119e-16
  outer loop
    vertex 44.0 -2.900000000000003 7.165000000000001
    vertex 0.8590191353900618 -2.8999999999999977 0.0
    vertex 44.0 -2.9000000000000004 0.0
  endloop
endfacet
facet normal -5.719551625339986e-17 -1.0 -4.532088989809119e-16
  outer loop
    vertex 0.8590191353900618 -2.8999999999999977 0.0
    vertex 44.0 -2.900000000000003 7.165000000000001
    vertex 0.8590191353900615 -2.9000000000000012 7.164999999999999
  endloop
endfacet
facet normal 1.0 -5.98088930681679e-17 -8.455171471238689e-17
  outer loop
    vertex 44.0 -12.220000000000004 7.164999999999999
    vertex 44.00000000000001 -6.69000000000002 22.835000000000015
    vertex 44.0 -12.220000000000018 22.835000000000004
  endloop
endfacet
facet normal 1.0 -5.98088930681679e-17 -8.455171471238689e-17
  outer loop
    vertex 44.00000000000001 -6.69000000000002 22.835000000000015
    vertex 44.0 -12.220000000000004 7.164999999999999
    vertex 44.0 -9.455000000000007 4.400000000000002
  endloop
endfacet
facet normal 1.0 -5.98088930681679e-17 -8.455171471238689e-17
  outer loop
    vertex 44.00000000000001 -6.69000000000002 22.835000000000015
    vertex 44.0 -9.455000000000007 4.400000000000002
    vertex 44.0 -6.690000000000008 7.165000000000001
  endloop
endfacet
facet normal 1.0 -5.98088930681679e-17 -8.455171471238689e-17
  outer loop
    vertex 44.00000000000001 -6.69000000000002 22.835000000000015
    vertex 44.0 -6.690000000000008 7.165000000000001
    vertex 44.0 -2.9000000000000012 22.835
  endloop
endfacet
facet normal 1.0 -5.98088930681679e-17 -8.455171471238689e-17
  outer loop
    vertex 44.0 -2.9000000000000012 22.835
    vertex 44.0 -6.690000000000008 7.165000000000001
    vertex 44.0 -2.900000000000003 7.165000000000001
  endloop
endfacet
facet normal 8.459899447643734e-16 -1.0 2.6993935697650473e-16
  outer loop
    vertex 39.24999999999999 -6.690000000000001 22.835
    vertex 33.99999999999999 -6.69000000000001 7.165000000000001
    vertex 39.24999999999999 -6.690000000000004 7.165000000000001
  endloop
endfacet
facet normal 8.459899447643734e-16 -1.0 2.6993935697650473e-16
  outer loop
    vertex 33.99999999999999 -6.69000000000001 7.165000000000001
    vertex 39.24999999999999 -6.690000000000001 22.835
    vertex 34.000000000000036 -6.690000000000004 22.835
  endloop
endfacet
facet normal -1.61124887087122e-32 -1.0 1.7995957131767053e-16
  outer loop
    vertex 29.249999999999993 -6.689999999999994 22.835
    vertex 23.999999999999993 -6.689999999999998 7.165000000000001
    vertex 29.249999999999993 -6.689999999999998 7.165000000000001
  endloop
endfacet
facet normal -1.61124887087122e-32 -1.0 1.7995957131767053e-16
  outer loop
    vertex 23.999999999999993 -6.689999999999998 7.165000000000001
    vertex 29.249999999999993 -6.689999999999994 22.835
    vertex 23.999999999999993 -6.689999999999994 22.835
  endloop
endfacet
facet normal -1.4099832412739488e-16 -1.0 1.3496967848825288e-16
  outer loop
    vertex 19.249999999999993 -6.690000000000011 22.835
    vertex 13.999999999999995 -6.690000000000013 7.165000000000001
    vertex 19.249999999999993 -6.690000000000015 7.165000000000001
  endloop
endfacet
facet normal -1.4099832412739488e-16 -1.0 1.3496967848825288e-16
  outer loop
    vertex 13.999999999999995 -6.690000000000013 7.165000000000001
    vertex 19.249999999999993 -6.690000000000011 22.835
    vertex 13.999999999999995 -6.690000000000011 22.835
  endloop
endfacet
facet normal -1.0 -3.152791552378048e-31 6.356287799386203e-17
  outer loop
    vertex 19.249999999999993 -9.455000000000005 25.600000000000005
    vertex 19.249999999999993 -12.219999999999997 7.1649999999999965
    vertex 19.249999999999993 -12.220000000000002 22.83500000000001
  endloop
endfacet
facet normal -1.0 -3.152791552378048e-31 6.356287799386203e-17
  outer loop
    vertex 19.249999999999993 -12.219999999999997 7.1649999999999965
    vertex 19.249999999999993 -9.455000000000005 25.600000000000005
    vertex 19.24999999999999 -9.454999999999998 4.399999999999999
  endloop
endfacet
facet normal -1.0 -3.152791552378048e-31 6.356287799386203e-17
  outer loop
    vertex 19.24999999999999 -9.454999999999998 4.399999999999999
    vertex 19.249999999999993 -9.455000000000005 25.600000000000005
    vertex 19.249999999999993 -6.690000000000011 22.835
  endloop
endfacet
facet normal -1.0 -3.152791552378048e-31 6.356287799386203e-17
  outer loop
    vertex 19.24999999999999 -9.454999999999998 4.399999999999999
    vertex 19.249999999999993 -6.690000000000011 22.835
    vertex 19.249999999999993 -6.690000000000015 7.165000000000001
  endloop
endfacet
facet normal 1.0 -0.0 -0.0
  outer loop
    vertex 23.999999999999993 -12.219999999999997 7.1649999999999965
    vertex 23.999999999999993 -6.689999999999994 22.835
    vertex 23.999999999999993 -12.220000000000002 22.83500000000001
  endloop
endfacet
facet normal 1.0 -0.0 -0.0
  outer loop
    vertex 23.999999999999993 -6.689999999999994 22.835
    vertex 23.999999999999993 -12.219999999999997 7.1649999999999965
    vertex 23.999999999999993 -6.689999999999998 7.165000000000001
  endloop
endfacet
facet normal -1.0 5.864306428445001e-15 1.1054543922800106e-16
  outer loop
    vertex 9.249999999999995 -12.220000000000002 22.835000000000022
    vertex 9.249999999999991 -9.455000000000016 4.399999999999999
    vertex 9.249999999999995 -12.220000000000013 7.1649999999999965
  endloop
endfacet
facet normal -1.0 5.864306428445001e-15 1.1054543922800106e-16
  outer loop
    vertex 9.249999999999991 -9.455000000000016 4.399999999999999
    vertex 9.249999999999995 -12.220000000000002 22.835000000000022
    vertex 9.249999999999995 -9.455000000000005 25.600000000000016
  endloop
endfacet
facet normal -1.0 5.864306428445001e-15 1.1054543922800106e-16
  outer loop
    vertex 9.249999999999991 -9.455000000000016 4.399999999999999
    vertex 9.249999999999995 -9.455000000000005 25.600000000000016
    vertex 9.250000000000025 -6.690000000000023 7.165000000000004
  endloop
endfacet
facet normal -1.0 5.864306428445001e-15 1.1054543922800106e-16
  outer loop
    vertex 9.250000000000025 -6.690000000000023 7.165000000000004
    vertex 9.249999999999995 -9.455000000000005 25.600000000000016
    vertex 9.250000000000028 -6.69000000000001 22.835000000000033
  endloop
endfacet
facet normal 1.0 -0.0 -0.0
  outer loop
    vertex 13.999999999999995 -6.690000000000013 7.165000000000001
    vertex 13.999999999999995 -12.22 22.835000000000022
    vertex 13.999999999999995 -12.220000000000011 7.1649999999999965
  endloop
endfacet
facet normal 1.0 -0.0 -0.0
  outer loop
    vertex 13.999999999999995 -12.22 22.835000000000022
    vertex 13.999999999999995 -6.690000000000013 7.165000000000001
    vertex 13.999999999999995 -6.690000000000011 22.835
  endloop
endfacet
facet normal 0.0 -1.0 7.198382852706809e-16
  outer loop
    vertex 13.999999999999995 -12.22 22.835000000000022
    vertex 9.249999999999995 -12.220000000000013 7.1649999999999965
    vertex 13.999999999999995 -12.220000000000011 7.1649999999999965
  endloop
endfacet
facet normal 0.0 -1.0 7.198382852706809e-16
  outer loop
    vertex 9.249999999999995 -12.220000000000013 7.1649999999999965
    vertex 13.999999999999995 -12.22 22.835000000000022
    vertex 9.249999999999995 -12.220000000000002 22.835000000000022
  endloop
endfacet
facet normal -5.639932845251418e-16 -1.0 -1.0797759793009573e-15
  outer loop
    vertex 3.9999999999999836 -12.220000000000006 22.835000000000008
    vertex -1.0000000000000122 -12.219999999999986 7.1649999999999965
    vertex 3.99999999999999 -12.219999999999986 7.1649999999999965
  endloop
endfacet
facet normal -5.639932845251418e-16 -1.0 -1.0797759793009573e-15
  outer loop
    vertex -1.0000000000000122 -12.219999999999986 7.1649999999999965
    vertex 3.9999999999999836 -12.220000000000006 22.835000000000008
    vertex -1.0010308646099504 -12.22 22.835000000000008
  endloop
endfacet
facet normal 6.722840761217845e-32 -1.0 6.298584996118468e-16
  outer loop
    vertex 34.000000000000036 -12.219999999999999 22.835
    vertex 29.249999999999993 -12.22000000000001 7.165000000000001
    vertex 33.99999999999999 -12.22000000000001 7.165000000000001
  endloop
endfacet
facet normal 6.722840761217845e-32 -1.0 6.298584996118468e-16
  outer loop
    vertex 29.249999999999993 -12.22000000000001 7.165000000000001
    vertex 34.000000000000036 -12.219999999999999 22.835
    vertex 29.249999999999993 -12.219999999999999 22.835
  endloop
endfacet
facet normal 0.0 -1.0 -3.5991914263534077e-16
  outer loop
    vertex 23.999999999999993 -12.220000000000002 22.83500000000001
    vertex 19.249999999999993 -12.219999999999997 7.1649999999999965
    vertex 23.999999999999993 -12.219999999999997 7.1649999999999965
  endloop
endfacet
facet normal 0.0 -1.0 -3.5991914263534077e-16
  outer loop
    vertex 19.249999999999993 -12.219999999999997 7.1649999999999965
    vertex 23.999999999999993 -12.220000000000002 22.83500000000001
    vertex 19.249999999999993 -12.220000000000002 22.83500000000001
  endloop
endfacet
facet normal -1.8726010499257736e-32 -1.0 -8.098180709295172e-16
  outer loop
    vertex 44.0 -12.220000000000018 22.835000000000004
    vertex 39.25 -12.220000000000004 7.164999999999999
    vertex 44.0 -12.220000000000004 7.164999999999999
  endloop
endfacet
facet normal -1.8726010499257736e-32 -1.0 -8.098180709295172e-16
  outer loop
    vertex 39.25 -12.220000000000004 7.164999999999999
    vertex 44.0 -12.220000000000018 22.835000000000004
    vertex 39.24999999999999 -12.220000000000018 22.835000000000004
  endloop
endfacet
facet normal 8.996899675434605e-31 -0.7071067811865476 -0.7071067811865476
  outer loop
    vertex 44.0 -12.220000000000004 7.164999999999999
    vertex 39.25 -9.455000000000007 4.400000000000002
    vertex 44.0 -9.455000000000007 4.400000000000002
  endloop
endfacet
facet normal 8.996899675434605e-31 -0.7071067811865476 -0.7071067811865476
  outer loop
    vertex 39.25 -9.455000000000007 4.400000000000002
    vertex 44.0 -12.220000000000004 7.164999999999999
    vertex 39.25 -12.220000000000004 7.164999999999999
  endloop
endfacet
facet normal -1.0 -5.099396894299985e-16 -2.2109087845600907e-16
  outer loop
    vertex 39.24999999999999 -9.455000000000021 25.599999999999998
    vertex 39.25 -12.220000000000004 7.164999999999999
    vertex 39.24999999999999 -12.220000000000018 22.835000000000004
  endloop
endfacet
facet normal -1.0 -5.099396894299985e-16 -2.2109087845600907e-16
  outer loop
    vertex 39.25 -12.220000000000004 7.164999999999999
    vertex 39.24999999999999 -9.455000000000021 25.599999999999998
    vertex 39.25 -9.455000000000007 4.400000000000002
  endloop
endfacet
facet normal -1.0 -5.099396894299985e-16 -2.2109087845600907e-16
  outer loop
    vertex 39.25 -9.455000000000007 4.400000000000002
    vertex 39.24999999999999 -9.455000000000021 25.599999999999998
    vertex 39.24999999999999 -6.690000000000001 22.835
  endloop
endfacet
facet normal -1.0 -5.099396894299985e-16 -2.2109087845600907e-16
  outer loop
    vertex 39.25 -9.455000000000007 4.400000000000002
    vertex 39.24999999999999 -6.690000000000001 22.835
    vertex 39.24999999999999 -6.690000000000004 7.165000000000001
  endloop
endfacet
facet normal 3.165502658263824e-16 0.7071067811865474 -0.7071067811865478
  outer loop
    vertex 44.0 -6.690000000000008 7.165000000000001
    vertex 39.25 -9.455000000000007 4.400000000000002
    vertex 39.24999999999999 -6.690000000000004 7.165000000000001
  endloop
endfacet
facet normal 3.165502658263824e-16 0.7071067811865474 -0.7071067811865478
  outer loop
    vertex 39.25 -9.455000000000007 4.400000000000002
    vertex 44.0 -6.690000000000008 7.165000000000001
    vertex 44.0 -9.455000000000007 4.400000000000002
  endloop
endfacet
facet normal 0.0 -0.7071067811865476 -0.7071067811865476
  outer loop
    vertex 33.99999999999999 -12.22000000000001 7.165000000000001
    vertex 29.249999999999993 -9.455000000000013 4.400000000000005
    vertex 33.99999999999999 -9.455000000000013 4.400000000000005
  endloop
endfacet
facet normal 0.0 -0.7071067811865476 -0.7071067811865476
  outer loop
    vertex 29.249999999999993 -9.455000000000013 4.400000000000005
    vertex 33.99999999999999 -12.22000000000001 7.165000000000001
    vertex 29.249999999999993 -12.22000000000001 7.165000000000001
  endloop
endfacet
facet normal 9.021682576051876e-16 0.7071067811865459 -0.7071067811865492
  outer loop
    vertex 33.99999999999999 -6.69000000000001 7.165000000000001
    vertex 29.249999999999993 -9.455000000000013 4.400000000000005
    vertex 29.249999999999993 -6.689999999999998 7.165000000000001
  endloop
endfacet
facet normal 9.021682576051876e-16 0.7071067811865459 -0.7071067811865492
  outer loop
    vertex 29.249999999999993 -9.455000000000013 4.400000000000005
    vertex 33.99999999999999 -6.69000000000001 7.165000000000001
    vertex 33.99999999999999 -9.455000000000013 4.400000000000005
  endloop
endfacet
facet normal -1.482859755446669e-31 -0.7071067811865476 -0.7071067811865476
  outer loop
    vertex 23.999999999999993 -12.219999999999997 7.1649999999999965
    vertex 19.24999999999999 -9.454999999999998 4.399999999999999
    vertex 23.999999999999986 -9.454999999999998 4.399999999999999
  endloop
endfacet
facet normal -1.482859755446669e-31 -0.7071067811865476 -0.7071067811865476
  outer loop
    vertex 19.24999999999999 -9.454999999999998 4.399999999999999
    vertex 23.999999999999993 -12.219999999999997 7.1649999999999965
    vertex 19.249999999999993 -12.219999999999997 7.1649999999999965
  endloop
endfacet
facet normal -1.202891010140258e-15 0.7071067811865487 -0.7071067811865465
  outer loop
    vertex 19.249999999999993 -6.690000000000015 7.165000000000001
    vertex 23.999999999999986 -9.454999999999998 4.399999999999999
    vertex 19.24999999999999 -9.454999999999998 4.399999999999999
  endloop
endfacet
facet normal -1.202891010140258e-15 0.7071067811865487 -0.7071067811865465
  outer loop
    vertex 23.999999999999986 -9.454999999999998 4.399999999999999
    vertex 19.249999999999993 -6.690000000000015 7.165000000000001
    vertex 23.999999999999993 -6.689999999999998 7.165000000000001
  endloop
endfacet
facet normal 1.5827513291319225e-17 -0.7071067811865476 -0.7071067811865476
  outer loop
    vertex 13.999999999999995 -12.220000000000011 7.1649999999999965
    vertex 9.249999999999991 -9.455000000000016 4.399999999999999
    vertex 13.999999999999988 -9.455000000000014 4.399999999999999
  endloop
endfacet
facet normal 1.5827513291319225e-17 -0.7071067811865476 -0.7071067811865476
  outer loop
    vertex 9.249999999999991 -9.455000000000016 4.399999999999999
    vertex 13.999999999999995 -12.220000000000011 7.1649999999999965
    vertex 9.249999999999995 -12.220000000000013 7.1649999999999965
  endloop
endfacet
facet normal -7.755481512746462e-16 0.7071067811865482 -0.7071067811865469
  outer loop
    vertex 9.250000000000025 -6.690000000000023 7.165000000000004
    vertex 13.999999999999988 -9.455000000000014 4.399999999999999
    vertex 9.249999999999991 -9.455000000000016 4.399999999999999
  endloop
endfacet
facet normal -7.755481512746462e-16 0.7071067811865482 -0.7071067811865469
  outer loop
    vertex 13.999999999999988 -9.455000000000014 4.399999999999999
    vertex 9.250000000000025 -6.690000000000023 7.165000000000004
    vertex 13.999999999999995 -6.690000000000013 7.165000000000001
  endloop
endfacet
facet normal -8.072031778572849e-16 0.7071067811865482 -0.7071067811865469
  outer loop
    vertex -0.9999999999999785 -6.689999999999996 7.165000000000004
    vertex 3.999999999999984 -9.45499999999999 4.399999999999999
    vertex -1.0000000000000122 -9.45499999999999 4.399999999999999
  endloop
endfacet
facet normal -8.072031778572849e-16 0.7071067811865482 -0.7071067811865469
  outer loop
    vertex 3.999999999999984 -9.45499999999999 4.399999999999999
    vertex -0.9999999999999785 -6.689999999999996 7.165000000000004
    vertex 3.999999999999984 -6.689999999999991 7.164999999999998
  endloop
endfacet
facet normal 0.0 -0.7071067811865476 -0.7071067811865476
  outer loop
    vertex 3.99999999999999 -12.219999999999986 7.1649999999999965
    vertex -1.0000000000000122 -9.45499999999999 4.399999999999999
    vertex 3.999999999999984 -9.45499999999999 4.399999999999999
  endloop
endfacet
facet normal 0.0 -0.7071067811865476 -0.7071067811865476
  outer loop
    vertex -1.0000000000000122 -9.45499999999999 4.399999999999999
    vertex 3.99999999999999 -12.219999999999986 7.1649999999999965
    vertex -1.0000000000000122 -12.219999999999986 7.1649999999999965
  endloop
endfacet
facet normal 1.0 -0.0 -0.0
  outer loop
    vertex 33.99999999999999 -6.69000000000001 7.165000000000001
    vertex 33.99999999999999 -12.22000000000001 7.165000000000001
    vertex 33.99999999999999 -9.455000000000013 4.400000000000005
  endloop
endfacet
facet normal 1.0 1.543576858912492e-30 -2.0397587577199988e-15
  outer loop
    vertex 23.999999999999993 -6.689999999999998 7.165000000000001
    vertex 23.999999999999993 -12.219999999999997 7.1649999999999965
    vertex 23.999999999999986 -9.454999999999998 4.399999999999999
  endloop
endfacet
facet normal 1.0 1.570105800383482e-30 -2.0397587577199988e-15
  outer loop
    vertex 13.999999999999995 -6.690000000000013 7.165000000000001
    vertex 13.999999999999995 -12.220000000000011 7.1649999999999965
    vertex 13.999999999999988 -9.455000000000014 4.399999999999999
  endloop
endfacet
facet normal 1.0 1.01987937886e-15 -1.01987937886e-15
  outer loop
    vertex 3.999999999999984 -6.689999999999991 7.164999999999998
    vertex 3.99999999999999 -12.219999999999986 7.1649999999999965
    vertex 3.999999999999984 -9.45499999999999 4.399999999999999
  endloop
endfacet
facet normal -1.0 6.119276273159996e-15 6.119276273159997e-15
  outer loop
    vertex -0.9999999999999785 -6.689999999999996 7.165000000000004
    vertex -1.0000000000000122 -9.45499999999999 4.399999999999999
    vertex -1.0000000000000122 -12.219999999999986 7.1649999999999965
  endloop
endfacet
facet normal -0.9999999976224856 -5.2125274379497265e-05 -4.514404382795009e-05
  outer loop
    vertex -1.0010308646099166 -6.690000000000008 22.83500000000002
    vertex -1.0000000000000122 -12.219999999999986 7.1649999999999965
    vertex -1.0010308646099504 -12.22 22.835000000000008
  endloop
endfacet
facet normal -0.9999999976224856 -5.2125274379497265e-05 -4.514404382795009e-05
  outer loop
    vertex -1.0000000000000122 -12.219999999999986 7.1649999999999965
    vertex -1.0010308646099166 -6.690000000000008 22.83500000000002
    vertex -0.9999999999999785 -6.689999999999996 7.165000000000004
  endloop
endfacet
facet normal -0.9999999976224856 -5.2125274379497265e-05 -4.514404382795009e-05
  outer loop
    vertex -0.9999999999999785 -6.689999999999996 7.165000000000004
    vertex -1.0010308646099166 -6.690000000000008 22.83500000000002
    vertex -1.00103086460994 -4.1079305937270245 22.835
  endloop
endfacet
facet normal -0.9999999976224856 -5.2125274379497265e-05 -4.514404382795009e-05
  outer loop
    vertex -0.9999999999999785 -6.689999999999996 7.165000000000004
    vertex -1.00103086460994 -4.1079305937270245 22.835
    vertex -1.00103086460994 -4.1079305937270245 7.164999999999999
  endloop
endfacet
facet normal 1.51990485576744e-20 -3.2726598450954957e-16 -1.0
  outer loop
    vertex 0.8590191353900615 -2.9000000000000012 7.164999999999999
    vertex -0.9999999999999785 -6.689999999999996 7.165000000000004
    vertex -1.00103086460994 -4.1079305937270245 7.164999999999999
  endloop
endfacet
facet normal 1.51990485576744e-20 -3.2726598450954957e-16 -1.0
  outer loop
    vertex -0.9999999999999785 -6.689999999999996 7.165000000000004
    vertex 0.8590191353900615 -2.9000000000000012 7.164999999999999
    vertex 3.999999999999984 -6.689999999999991 7.164999999999998
  endloop
endfacet
facet normal 1.51990485576744e-20 -3.2726598450954957e-16 -1.0
  outer loop
    vertex 3.999999999999984 -6.689999999999991 7.164999999999998
    vertex 0.8590191353900615 -2.9000000000000012 7.164999999999999
    vertex 44.0 -2.900000000000003 7.165000000000001
  endloop
endfacet
facet normal 1.51990485576744e-20 -3.2726598450954957e-16 -1.0
  outer loop
    vertex 3.999999999999984 -6.689999999999991 7.164999999999998
    vertex 44.0 -2.900000000000003 7.165000000000001
    vertex 9.250000000000025 -6.690000000000023 7.165000000000004
  endloop
endfacet
facet normal 1.51990485576744e-20 -3.2726598450954957e-16 -1.0
  outer loop
    vertex 9.250000000000025 -6.690000000000023 7.165000000000004
    vertex 44.0 -2.900000000000003 7.165000000000001
    vertex 13.999999999999995 -6.690000000000013 7.165000000000001
  endloop
endfacet
facet normal 1.51990485576744e-20 -3.2726598450954957e-16 -1.0
  outer loop
    vertex 13.999999999999995 -6.690000000000013 7.165000000000001
    vertex 44.0 -2.900000000000003 7.165000000000001
    vertex 19.249999999999993 -6.690000000000015 7.165000000000001
  endloop
endfacet
facet normal 1.51990485576744e-20 -3.2726598450954957e-16 -1.0
  outer loop
    vertex 19.249999999999993 -6.690000000000015 7.165000000000001
    vertex 44.0 -2.900000000000003 7.165000000000001
    vertex 23.999999999999993 -6.689999999999998 7.165000000000001
  endloop
endfacet
facet normal 1.51990485576744e-20 -3.2726598450954957e-16 -1.0
  outer loop
    vertex 23.999999999999993 -6.689999999999998 7.165000000000001
    vertex 44.0 -2.900000000000003 7.165000000000001
    vertex 29.249999999999993 -6.689999999999998 7.165000000000001
  endloop
endfacet
facet normal 1.51990485576744e-20 -3.2726598450954957e-16 -1.0
  outer loop
    vertex 29.249999999999993 -6.689999999999998 7.165000000000001
    vertex 44.0 -2.900000000000003 7.165000000000001
    vertex 33.99999999999999 -6.69000000000001 7.165000000000001
  endloop
endfacet
facet normal 1.51990485576744e-20 -3.2726598450954957e-16 -1.0
  outer loop
    vertex 33.99999999999999 -6.69000000000001 7.165000000000001
    vertex 44.0 -2.900000000000003 7.165000000000001
    vertex 39.24999999999999 -6.690000000000004 7.165000000000001
  endloop
endfacet
facet normal 1.51990485576744e-20 -3.2726598450954957e-16 -1.0
  outer loop
    vertex 39.24999999999999 -6.690000000000004 7.165000000000001
    vertex 44.0 -2.900000000000003 7.165000000000001
    vertex 44.0 -6.690000000000008 7.165000000000001
  endloop
endfacet
facet normal 1.0 3.153817129992067e-31 -2.519433998447387e-15
  outer loop
    vertex 33.99999999999999 -6.69000000000001 7.165000000000001
    vertex 34.000000000000036 -12.219999999999999 22.835
    vertex 33.99999999999999 -12.22000000000001 7.165000000000001
  endloop
endfacet
facet normal 1.0 3.153817129992067e-31 -2.519433998447387e-15
  outer loop
    vertex 34.000000000000036 -12.219999999999999 22.835
    vertex 33.99999999999999 -6.69000000000001 7.165000000000001
    vertex 34.000000000000036 -6.690000000000004 22.835
  endloop
endfacet
facet normal 1.4753023008269583e-16 0.707106781186545 0.7071067811865501
  outer loop
    vertex 44.00000000000001 -9.455000000000021 25.599999999999998
    vertex 39.24999999999999 -6.690000000000001 22.835
    vertex 39.24999999999999 -9.455000000000021 25.599999999999998
  endloop
endfacet
facet normal 1.4753023008269583e-16 0.707106781186545 0.7071067811865501
  outer loop
    vertex 39.24999999999999 -6.690000000000001 22.835
    vertex 44.00000000000001 -9.455000000000021 25.599999999999998
    vertex 44.00000000000001 -6.69000000000002 22.835000000000015
  endloop
endfacet
facet normal 1.4753023008269583e-16 0.707106781186545 0.7071067811865501
  outer loop
    vertex 44.00000000000001 -6.69000000000002 22.835000000000015
    vertex 44.00000000000001 -9.455000000000021 25.599999999999998
    vertex 44.00000000000001 -6.9000000000000075 23.045
  endloop
endfacet
facet normal -9.267873471541668e-31 -0.7071067811865471 0.7071067811865479
  outer loop
    vertex 44.0 -12.220000000000018 22.835000000000004
    vertex 39.24999999999999 -9.455000000000021 25.599999999999998
    vertex 39.24999999999999 -12.220000000000018 22.835000000000004
  endloop
endfacet
facet normal -9.267873471541668e-31 -0.7071067811865471 0.7071067811865479
  outer loop
    vertex 39.24999999999999 -9.455000000000021 25.599999999999998
    vertex 44.0 -12.220000000000018 22.835000000000004
    vertex 44.00000000000001 -9.455000000000021 25.599999999999998
  endloop
endfacet
facet normal 6.964105848180378e-16 0.7071067811865465 0.7071067811865486
  outer loop
    vertex 34.0 -9.455000000000004 25.599999999999998
    vertex 29.249999999999993 -6.689999999999994 22.835
    vertex 29.249999999999993 -9.455000000000004 25.599999999999998
  endloop
endfacet
facet normal 6.964105848180378e-16 0.7071067811865465 0.7071067811865486
  outer loop
    vertex 29.249999999999993 -6.689999999999994 22.835
    vertex 34.0 -9.455000000000004 25.599999999999998
    vertex 34.000000000000036 -6.690000000000004 22.835
  endloop
endfacet
facet normal -0.0 -0.7071067811865476 0.7071067811865476
  outer loop
    vertex 34.0 -9.455000000000004 25.599999999999998
    vertex 29.249999999999993 -12.219999999999999 22.835
    vertex 34.000000000000036 -12.219999999999999 22.835
  endloop
endfacet
facet normal -0.0 -0.7071067811865476 0.7071067811865476
  outer loop
    vertex 29.249999999999993 -12.219999999999999 22.835
    vertex 34.0 -9.455000000000004 25.599999999999998
    vertex 29.249999999999993 -9.455000000000004 25.599999999999998
  endloop
endfacet
facet normal -4.819294205201671e-31 -0.7071067811865471 0.7071067811865479
  outer loop
    vertex 23.999999999999993 -12.220000000000002 22.83500000000001
    vertex 19.249999999999993 -9.455000000000005 25.600000000000005
    vertex 19.249999999999993 -12.220000000000002 22.83500000000001
  endloop
endfacet
facet normal -4.819294205201671e-31 -0.7071067811865471 0.7071067811865479
  outer loop
    vertex 19.249999999999993 -9.455000000000005 25.600000000000005
    vertex 23.999999999999993 -12.220000000000002 22.83500000000001
    vertex 24.0 -9.455000000000005 25.600000000000005
  endloop
endfacet
facet normal -1.2028910101402517e-15 0.7071067811865475 0.7071067811865476
  outer loop
    vertex 24.0 -9.455000000000005 25.600000000000005
    vertex 19.249999999999993 -6.690000000000011 22.835
    vertex 19.249999999999993 -9.455000000000005 25.600000000000005
  endloop
endfacet
facet normal -1.2028910101402517e-15 0.7071067811865475 0.7071067811865476
  outer loop
    vertex 19.249999999999993 -6.690000000000011 22.835
    vertex 24.0 -9.455000000000005 25.600000000000005
    vertex 23.999999999999993 -6.689999999999994 22.835
  endloop
endfacet
facet normal -4.819294205201671e-31 -0.7071067811865471 0.7071067811865479
  outer loop
    vertex 13.999999999999995 -12.22 22.835000000000022
    vertex 9.249999999999995 -9.455000000000005 25.600000000000016
    vertex 9.249999999999995 -12.220000000000002 22.835000000000022
  endloop
endfacet
facet normal -4.819294205201671e-31 -0.7071067811865471 0.7071067811865479
  outer loop
    vertex 9.249999999999995 -9.455000000000005 25.600000000000016
    vertex 13.999999999999995 -12.22 22.835000000000022
    vertex 14.000000000000002 -9.455000000000005 25.600000000000016
  endloop
endfacet
facet normal 2.3899545069891992e-15 0.7071067811865479 0.7071067811865471
  outer loop
    vertex 9.250000000000028 -6.69000000000001 22.835000000000033
    vertex 14.000000000000002 -9.455000000000005 25.600000000000016
    vertex 13.999999999999995 -6.690000000000011 22.835
  endloop
endfacet
facet normal 2.3899545069891992e-15 0.7071067811865479 0.7071067811865471
  outer loop
    vertex 14.000000000000002 -9.455000000000005 25.600000000000016
    vertex 9.250000000000028 -6.69000000000001 22.835000000000033
    vertex 9.249999999999995 -9.455000000000005 25.600000000000016
  endloop
endfacet
facet normal 1.0 -4.746407733639032e-30 -3.05963813658e-15
  outer loop
    vertex 23.999999999999993 -6.689999999999994 22.835
    vertex 24.0 -9.455000000000005 25.600000000000005
    vertex 23.999999999999993 -12.220000000000002 22.83500000000001
  endloop
endfacet
facet normal 1.0 -1.0933666151794449e-29 -3.0596381365799934e-15
  outer loop
    vertex 13.999999999999995 -6.690000000000011 22.835
    vertex 14.000000000000002 -9.455000000000005 25.600000000000016
    vertex 13.999999999999995 -12.22 22.835000000000022
  endloop
endfacet
facet normal 1.0 -1.0862257025384135e-15 -1.3400281803733575e-15
  outer loop
    vertex 44.0 -12.220000000000018 22.835000000000004
    vertex 44.00000000000001 -6.9000000000000075 23.045
    vertex 44.00000000000001 -9.455000000000021 25.599999999999998
  endloop
endfacet
facet normal 1.0 -1.0862257025384135e-15 -1.3400281803733575e-15
  outer loop
    vertex 44.00000000000001 -6.9000000000000075 23.045
    vertex 44.0 -12.220000000000018 22.835000000000004
    vertex 44.00000000000001 -6.69000000000002 22.835000000000015
  endloop
endfacet
facet normal 1.0 4.568002091460657e-46 1.2238552546320007e-14
  outer loop
    vertex 34.000000000000036 -6.690000000000004 22.835
    vertex 34.0 -9.455000000000004 25.599999999999998
    vertex 34.000000000000036 -12.219999999999999 22.835
  endloop
endfacet
facet normal 0.9999999951152956 9.320656463798535e-05 3.289293570189948e-05
  outer loop
    vertex 3.99999999999999 -12.219999999999986 7.1649999999999965
    vertex 3.9989691353900576 -6.690000000000003 22.83500000000002
    vertex 3.9999999999999836 -12.220000000000006 22.835000000000008
  endloop
endfacet
facet normal 0.9999999951152956 9.320656463798535e-05 3.289293570189948e-05
  outer loop
    vertex 3.9989691353900576 -6.690000000000003 22.83500000000002
    vertex 3.99999999999999 -12.219999999999986 7.1649999999999965
    vertex 3.999999999999984 -6.689999999999991 7.164999999999998
  endloop
endfacet
facet normal 2.145831942232033e-16 3.2440266101717297e-15 1.0
  outer loop
    vertex -1.0010308646099166 -6.690000000000008 22.83500000000002
    vertex 0.8590191353900615 -2.9000000000000012 22.835
    vertex -1.00103086460994 -4.1079305937270245 22.835
  endloop
endfacet
facet normal 2.145831942232033e-16 3.2440266101717297e-15 1.0
  outer loop
    vertex 0.8590191353900615 -2.9000000000000012 22.835
    vertex -1.0010308646099166 -6.690000000000008 22.83500000000002
    vertex 3.9989691353900576 -6.690000000000003 22.83500000000002
  endloop
endfacet
facet normal 2.145831942232033e-16 3.2440266101717297e-15 1.0
  outer loop
    vertex 0.8590191353900615 -2.9000000000000012 22.835
    vertex 3.9989691353900576 -6.690000000000003 22.83500000000002
    vertex 44.0 -2.9000000000000012 22.835
  endloop
endfacet
facet normal 2.145831942232033e-16 3.2440266101717297e-15 1.0
  outer loop
    vertex 44.0 -2.9000000000000012 22.835
    vertex 3.9989691353900576 -6.690000000000003 22.83500000000002
    vertex 9.250000000000028 -6.69000000000001 22.835000000000033
  endloop
endfacet
facet normal 2.145831942232033e-16 3.2440266101717297e-15 1.0
  outer loop
    vertex 44.0 -2.9000000000000012 22.835
    vertex 9.250000000000028 -6.69000000000001 22.835000000000033
    vertex 13.999999999999995 -6.690000000000011 22.835
  endloop
endfacet
facet normal 2.145831942232033e-16 3.2440266101717297e-15 1.0
  outer loop
    vertex 44.0 -2.9000000000000012 22.835
    vertex 13.999999999999995 -6.690000000000011 22.835
    vertex 19.249999999999993 -6.690000000000011 22.835
  endloop
endfacet
facet normal 2.145831942232033e-16 3.2440266101717297e-15 1.0
  outer loop
    vertex 44.0 -2.9000000000000012 22.835
    vertex 19.249999999999993 -6.690000000000011 22.835
    vertex 23.999999999999993 -6.689999999999994 22.835
  endloop
endfacet
facet normal 2.145831942232033e-16 3.2440266101717297e-15 1.0
  outer loop
    vertex 44.0 -2.9000000000000012 22.835
    vertex 23.999999999999993 -6.689999999999994 22.835
    vertex 29.249999999999993 -6.689999999999994 22.835
  endloop
endfacet
facet normal 2.145831942232033e-16 3.2440266101717297e-15 1.0
  outer loop
    vertex 44.0 -2.9000000000000012 22.835
    vertex 29.249999999999993 -6.689999999999994 22.835
    vertex 34.000000000000036 -6.690000000000004 22.835
  endloop
endfacet
facet normal 2.145831942232033e-16 3.2440266101717297e-15 1.0
  outer loop
    vertex 44.0 -2.9000000000000012 22.835
    vertex 34.000000000000036 -6.690000000000004 22.835
    vertex 39.24999999999999 -6.690000000000001 22.835
  endloop
endfacet
facet normal 2.145831942232033e-16 3.2440266101717297e-15 1.0
  outer loop
    vertex 44.0 -2.9000000000000012 22.835
    vertex 39.24999999999999 -6.690000000000001 22.835
    vertex 44.00000000000001 -6.69000000000002 22.835000000000015
  endloop
endfacet
facet normal 0.9999999652501467 0.00018641312370769512 -0.00018641312370871544
  outer loop
    vertex 3.9989691353900576 -6.690000000000003 22.83500000000002
    vertex 3.9999999999999862 -9.455000000000009 25.599999999999998
    vertex 3.9999999999999836 -12.220000000000006 22.835000000000008
  endloop
endfacet
facet normal -6.96123511590831e-16 -0.7071067811865468 0.7071067811865482
  outer loop
    vertex 3.9999999999999836 -12.220000000000006 22.835000000000008
    vertex -1.0010308646099504 -9.455000000000005 25.599999999999998
    vertex -1.0010308646099504 -12.22 22.835000000000008
  endloop
endfacet
facet normal -6.96123511590831e-16 -0.7071067811865468 0.7071067811865482
  outer loop
    vertex -1.0010308646099504 -9.455000000000005 25.599999999999998
    vertex 3.9999999999999836 -12.220000000000006 22.835000000000008
    vertex 3.9999999999999862 -9.455000000000009 25.599999999999998
  endloop
endfacet
facet normal -1.1108522799346713e-16 0.7071067811865448 0.7071067811865503
  outer loop
    vertex 3.9999999999999862 -9.455000000000009 25.599999999999998
    vertex -1.0010308646099166 -6.690000000000008 22.83500000000002
    vertex -1.0010308646099504 -9.455000000000005 25.599999999999998
  endloop
endfacet
facet normal -1.1108522799346713e-16 0.7071067811865448 0.7071067811865503
  outer loop
    vertex -1.0010308646099166 -6.690000000000008 22.83500000000002
    vertex 3.9999999999999862 -9.455000000000009 25.599999999999998
    vertex 3.9989691353900576 -6.690000000000003 22.83500000000002
  endloop
endfacet
facet normal -1.0 6.016303720537281e-15 -4.9077056008116955e-15
  outer loop
    vertex -1.0010308646099166 -6.690000000000008 22.83500000000002
    vertex -1.0010308646099504 -12.22 22.835000000000008
    vertex -1.0010308646099504 -9.455000000000005 25.599999999999998
  endloop
endfacet
facet normal -3.665316940453225e-15 -1.0 -1.2056303503703092e-19
  outer loop
    vertex 9.250000000000025 -6.690000000000023 7.165000000000004
    vertex 3.9989691353900576 -6.690000000000003 22.83500000000002
    vertex 3.999999999999984 -6.689999999999991 7.164999999999998
  endloop
endfacet
facet normal -3.665316940453225e-15 -1.0 -1.2056303503703092e-19
  outer loop
    vertex 3.9989691353900576 -6.690000000000003 22.83500000000002
    vertex 9.250000000000025 -6.690000000000023 7.165000000000004
    vertex 9.250000000000028 -6.69000000000001 22.835000000000033
  endloop
endfacet
facet normal -0.0 1.0 -0.0
  outer loop
    vertex 0.0 0.0 0.0
    vertex 1.9999999999999984 0.0 5.000000000000002
    vertex 44.0 0.0 0.0
  endloop
endfacet
facet normal -0.0 1.0 -0.0
  outer loop
    vertex 1.9999999999999984 0.0 5.000000000000002
    vertex 0.0 0.0 0.0
    vertex 0.0 0.0 30.0
  endloop
endfacet
facet normal -0.0 1.0 -0.0
  outer loop
    vertex 1.9999999999999984 0.0 5.000000000000002
    vertex 0.0 0.0 30.0
    vertex 1.9999999999999984 0.0 25.0
  endloop
endfacet
facet normal -0.0 1.0 -0.0
  outer loop
    vertex 1.9999999999999984 0.0 25.0
    vertex 0.0 0.0 30.0
    vertex 28.000000000000004 0.0 25.0
  endloop
endfacet
facet normal -0.0 1.0 -0.0
  outer loop
    vertex 28.000000000000004 0.0 25.0
    vertex 40.0 3.126978962502708e-17 6.75
    vertex 28.000000000000004 0.0 5.000000000000002
  endloop
endfacet
facet normal -0.0 1.0 -0.0
  outer loop
    vertex 40.0 3.126978962502708e-17 6.75
    vertex 28.000000000000004 0.0 25.0
    vertex 40.0 0.0 23.250000000000004
  endloop
endfacet
facet normal -0.0 1.0 -0.0
  outer loop
    vertex 40.0 0.0 23.250000000000004
    vertex 28.000000000000004 0.0 25.0
    vertex 44.0 0.0 23.250000000000004
  endloop
endfacet
facet normal -0.0 1.0 -0.0
  outer loop
    vertex 44.0 0.0 23.250000000000004
    vertex 28.000000000000004 0.0 25.0
    vertex 44.0 0.0 30.0
  endloop
endfacet
facet normal -0.0 1.0 -0.0
  outer loop
    vertex 44.0 0.0 30.0
    vertex 28.000000000000004 0.0 25.0
    vertex 0.0 0.0 30.0
  endloop
endfacet
facet normal -0.0 1.0 -0.0
  outer loop
    vertex 44.0 0.0 0.0
    vertex 28.000000000000004 0.0 5.000000000000002
    vertex 44.0 3.126978962502708e-17 6.75
  endloop
endfacet
facet normal -0.0 1.0 -0.0
  outer loop
    vertex 28.000000000000004 0.0 5.000000000000002
    vertex 44.0 0.0 0.0
    vertex 1.9999999999999984 0.0 5.000000000000002
  endloop
endfacet
facet normal -0.0 1.0 -0.0
  outer loop
    vertex 44.0 3.126978962502708e-17 6.75
    vertex 28.000000000000004 0.0 5.000000000000002
    vertex 40.0 3.126978962502708e-17 6.75
  endloop
endfacet
facet normal 0.0 0.0 -1.0
  outer loop
    vertex 44.0 0.0 0.0
    vertex 0.8590191353900618 -2.8999999999999977 0.0
    vertex 0.0 0.0 0.0
  endloop
endfacet
facet normal 0.0 0.0 -1.0
  outer loop
    vertex 0.8590191353900618 -2.8999999999999977 0.0
    vertex 44.0 0.0 0.0
    vertex 44.0 -2.9000000000000004 0.0
  endloop
endfacet
facet normal -0.0 -0.0 1.0
  outer loop
    vertex 0.8590191353900618 -2.8999999999999977 30.0
    vertex 44.0 0.0 30.0
    vertex 0.0 0.0 30.0
  endloop
endfacet
facet normal -0.0 -0.0 1.0
  outer loop
    vertex 44.0 0.0 30.0
    vertex 0.8590191353900618 -2.8999999999999977 30.0
    vertex 44.0 -2.9000000000000004 30.0
  endloop
endfacet
facet normal 0.5446390350150255 -0.838670567945425 8.350685178924765e-18
  outer loop
    vertex 0.8590191353900618 -2.8999999999999977 30.0
    vertex -1.00103086460994 -4.1079305937270245 22.835
    vertex 0.8590191353900615 -2.9000000000000012 22.835
  endloop
endfacet
facet normal 0.5446390350150255 -0.838670567945425 8.350685178924765e-18
  outer loop
    vertex -1.00103086460994 -4.1079305937270245 22.835
    vertex 0.8590191353900618 -2.8999999999999977 30.0
    vertex -11.462745178427182 -10.901847306983 28.0
  endloop
endfacet
facet normal 0.5446390350150255 -0.838670567945425 8.350685178924765e-18
  outer loop
    vertex 0.8590191353900615 -2.9000000000000012 7.164999999999999
    vertex -11.46274517842718 -10.901847306983 1.9999999999999996
    vertex 0.8590191353900618 -2.8999999999999977 0.0
  endloop
endfacet
facet normal 0.5446390350150255 -0.838670567945425 8.350685178924765e-18
  outer loop
    vertex -11.46274517842718 -10.901847306983 1.9999999999999996
    vertex 0.8590191353900615 -2.9000000000000012 7.164999999999999
    vertex -1.00103086460994 -4.1079305937270245 7.164999999999999
  endloop
endfacet
facet normal 0.5446390350150255 -0.838670567945425 8.350685178924765e-18
  outer loop
    vertex -11.46274517842718 -10.901847306983 1.9999999999999996
    vertex -1.00103086460994 -4.1079305937270245 7.164999999999999
    vertex -11.462745178427182 -10.901847306983 28.0
  endloop
endfacet
facet normal 0.5446390350150255 -0.838670567945425 8.350685178924765e-18
  outer loop
    vertex -11.462745178427182 -10.901847306983 28.0
    vertex -1.00103086460994 -4.1079305937270245 7.164999999999999
    vertex -1.00103086460994 -4.1079305937270245 22.835
  endloop
endfacet
facet normal -0.08938233851172737 -0.08802481116351558 0.992100010171254
  outer loop
    vertex 0.0 0.0 30.0
    vertex -13.539746547110484 -8.79281421766331 28.0
    vertex -11.462745178427182 -10.901847306983 28.0
  endloop
endfacet
facet normal -0.13477676296342994 -0.03992269599707526 0.9900714128331475
  outer loop
    vertex 0.8590191353900618 -2.8999999999999977 30.0
    vertex 0.0 0.0 30.0
    vertex -11.462745178427182 -10.901847306983 28.0
  endloop
endfacet
facet normal -0.7124967341370992 -0.7016754262791078 -5.897987876001189e-17
  outer loop
    vertex -13.539746547110484 -8.79281421766331 28.0
    vertex -11.46274517842718 -10.901847306983 1.9999999999999996
    vertex -11.462745178427182 -10.901847306983 28.0
  endloop
endfacet
facet normal -0.7124967341370992 -0.7016754262791078 -5.897987876001189e-17
  outer loop
    vertex -11.46274517842718 -10.901847306983 1.9999999999999996
    vertex -13.539746547110484 -8.79281421766331 28.0
    vertex -13.539746547110482 -8.79281421766331 1.9999999999999998
  endloop
endfacet
facet normal -0.5446390350150265 0.8386705679454244 -3.14348104598705e-17
  outer loop
    vertex -13.539746547110482 -8.79281421766331 1.9999999999999998
    vertex 0.0 0.0 30.0
    vertex 0.0 0.0 0.0
  endloop
endfacet
facet normal -0.5446390350150265 0.8386705679454244 -3.14348104598705e-17
  outer loop
    vertex 0.0 0.0 30.0
    vertex -13.539746547110482 -8.79281421766331 1.9999999999999998
    vertex -13.539746547110484 -8.79281421766331 28.0
  endloop
endfacet
facet normal -0.1347767629634301 -0.039922695997074716 -0.9900714128331475
  outer loop
    vertex 0.8590191353900618 -2.8999999999999977 0.0
    vertex -11.46274517842718 -10.901847306983 1.9999999999999996
    vertex 0.0 0.0 0.0
  endloop
endfacet
facet normal -0.08938233851172762 -0.0880248111635151 -0.992100010171254
  outer loop
    vertex 0.0 0.0 0.0
    vertex -11.46274517842718 -10.901847306983 1.9999999999999996
    vertex -13.539746547110482 -8.79281421766331 1.9999999999999998
  endloop
endfacet
facet normal -0.0 -0.0 1.0
  outer loop
    vertex 44.0 0.0 23.250000000000004
    vertex 40.000000000000014 10.0 23.250000000000004
    vertex 40.0 0.0 23.250000000000004
  endloop
endfacet
facet normal -0.0 -0.0 1.0
  outer loop
    vertex 40.000000000000014 10.0 23.250000000000004
    vertex 44.0 0.0 23.250000000000004
    vertex 44.0 10.0 23.250000000000004
  endloop
endfacet
facet normal -1.0 1.4751472794620507e-15 2.1524760497550355e-17
  outer loop
    vertex 40.000000000000014 10.0 23.250000000000004
    vertex 40.0 3.126978962502708e-17 6.75
    vertex 40.0 0.0 23.250000000000004
  endloop
endfacet
facet normal -1.0 1.4751472794620507e-15 2.1524760497550355e-17
  outer loop
    vertex 40.0 3.126978962502708e-17 6.75
    vertex 40.000000000000014 10.0 23.250000000000004
    vertex 40.000000000000014 9.999999999999998 6.749999999999999
  endloop
endfacet
facet normal -1.0 1.4751472794620507e-15 2.1524760497550355e-17
  outer loop
    vertex 40.000000000000014 9.999999999999998 6.749999999999999
    vertex 40.000000000000014 10.0 23.250000000000004
    vertex 40.000000000000014 12.0 8.75
  endloop
endfacet
facet normal -1.0 1.4751472794620507e-15 2.1524760497550355e-17
  outer loop
    vertex 40.000000000000014 12.0 8.75
    vertex 40.000000000000014 10.0 23.250000000000004
    vertex 40.000000000000014 12.0 21.25
  endloop
endfacet
facet normal -0.0 1.0 -0.0
  outer loop
    vertex 40.000000000000014 12.0 21.25
    vertex 44.0 12.0 8.75
    vertex 40.000000000000014 12.0 8.75
  endloop
endfacet
facet normal -0.0 1.0 -0.0
  outer loop
    vertex 44.0 12.0 8.75
    vertex 40.000000000000014 12.0 21.25
    vertex 44.0 12.0 21.25
  endloop
endfacet
facet normal 4.0382321294928684e-33 -1.4099832412739488e-16 -1.0
  outer loop
    vertex 40.000000000000014 9.999999999999998 6.749999999999999
    vertex 44.0 3.126978962502708e-17 6.75
    vertex 40.0 3.126978962502708e-17 6.75
  endloop
endfacet
facet normal 4.0382321294928684e-33 -1.4099832412739488e-16 -1.0
  outer loop
    vertex 44.0 3.126978962502708e-17 6.75
    vertex 40.000000000000014 9.999999999999998 6.749999999999999
    vertex 44.0 9.999999999999998 6.749999999999999
  endloop
endfacet
facet normal -0.0 0.7071067811865478 0.7071067811865474
  outer loop
    vertex 40.000000000000014 10.0 23.250000000000004
    vertex 44.0 12.0 21.25
    vertex 40.000000000000014 12.0 21.25
  endloop
endfacet
facet normal -0.0 0.7071067811865478 0.7071067811865474
  outer loop
    vertex 44.0 12.0 21.25
    vertex 40.000000000000014 10.0 23.250000000000004
    vertex 44.0 10.0 23.250000000000004
  endloop
endfacet
facet normal 1.0 -0.0 -0.0
  outer loop
    vertex 44.0 3.126978962502708e-17 6.75
    vertex 44.0 0.0 23.250000000000004
    vertex 44.0 0.0 0.0
  endloop
endfacet
facet normal 1.0 -0.0 -0.0
  outer loop
    vertex 44.0 0.0 23.250000000000004
    vertex 44.0 3.126978962502708e-17 6.75
    vertex 44.0 10.0 23.250000000000004
  endloop
endfacet
facet normal 1.0 -0.0 -0.0
  outer loop
    vertex 44.0 10.0 23.250000000000004
    vertex 44.0 3.126978962502708e-17 6.75
    vertex 44.0 9.999999999999998 6.749999999999999
  endloop
endfacet
facet normal 1.0 -0.0 -0.0
  outer loop
    vertex 44.0 10.0 23.250000000000004
    vertex 44.0 9.999999999999998 6.749999999999999
    vertex 44.0 12.0 8.75
  endloop
endfacet
facet normal 1.0 -0.0 -0.0
  outer loop
    vertex 44.0 10.0 23.250000000000004
    vertex 44.0 12.0 8.75
    vertex 44.0 12.0 21.25
  endloop
endfacet
facet normal 1.0 -0.0 -0.0
  outer loop
    vertex 44.0 -2.9000000000000004 0.0
    vertex 44.0 -2.9000000000000012 22.835
    vertex 44.0 -2.900000000000003 7.165000000000001
  endloop
endfacet
facet normal 1.0 -0.0 -0.0
  outer loop
    vertex 44.0 -2.9000000000000012 22.835
    vertex 44.0 -2.9000000000000004 0.0
    vertex 44.0 -2.9000000000000004 30.0
  endloop
endfacet
facet normal 1.0 -0.0 -0.0
  outer loop
    vertex 44.0 -2.9000000000000004 30.0
    vertex 44.0 -2.9000000000000004 0.0
    vertex 44.0 0.0 0.0
  endloop
endfacet
facet normal 1.0 -0.0 -0.0
  outer loop
    vertex 44.0 -2.9000000000000004 30.0
    vertex 44.0 0.0 0.0
    vertex 44.0 0.0 30.0
  endloop
endfacet
facet normal 1.0 -0.0 -0.0
  outer loop
    vertex 44.0 0.0 30.0
    vertex 44.0 0.0 0.0
    vertex 44.0 0.0 23.250000000000004
  endloop
endfacet
facet normal 0.0 0.7071067811865474 -0.7071067811865478
  outer loop
    vertex 44.0 12.0 8.75
    vertex 40.000000000000014 9.999999999999998 6.749999999999999
    vertex 40.000000000000014 12.0 8.75
  endloop
endfacet
facet normal 0.0 0.7071067811865474 -0.7071067811865478
  outer loop
    vertex 40.000000000000014 9.999999999999998 6.749999999999999
    vertex 44.0 12.0 8.75
    vertex 44.0 9.999999999999998 6.749999999999999
  endloop
endfacet
facet normal -1.0 0.0 0.0
  outer loop
    vertex 29.249999999999993 -12.219999999999999 22.835
    vertex 29.249999999999993 -9.455000000000013 4.400000000000005
    vertex 29.249999999999993 -12.22000000000001 7.165000000000001
  endloop
endfacet
facet normal -1.0 0.0 0.0
  outer loop
    vertex 29.249999999999993 -9.455000000000013 4.400000000000005
    vertex 29.249999999999993 -12.219999999999999 22.835
    vertex 29.249999999999993 -9.455000000000004 25.599999999999998
  endloop
endfacet
facet normal -1.0 0.0 0.0
  outer loop
    vertex 29.249999999999993 -9.455000000000013 4.400000000000005
    vertex 29.249999999999993 -9.455000000000004 25.599999999999998
    vertex 29.249999999999993 -6.689999999999998 7.165000000000001
  endloop
endfacet
facet normal -1.0 0.0 0.0
  outer loop
    vertex 29.249999999999993 -6.689999999999998 7.165000000000001
    vertex 29.249999999999993 -9.455000000000004 25.599999999999998
    vertex 29.249999999999993 -6.689999999999994 22.835
  endloop
endfacet
endsolid ko-front-delete-02
