solid ko-trigger-gaurd-cover-05
facet normal -1.1428571428162489e-06 3.000000000068908e-07 0.9999999999993021
  outer loop
    vertex 11.750000000000014 4.850115182310435e-16 -1.399992
    vertex 10.00000000000001 20.000000000000007 -1.4
    vertex 10.000000000000004 -2.334954964316854e-15 -1.3999959999999998
  endloop
endfacet
facet normal -1.1428571428162489e-06 3.000000000068908e-07 0.9999999999993021
  outer loop
    vertex 10.00000000000001 20.000000000000007 -1.4
    vertex 11.750000000000014 4.850115182310435e-16 -1.399992
    vertex 11.750000000000014 20.000000000000007 -1.4
  endloop
endfacet
facet normal 1.999997999924794e-07 1.0000019999663986e-06 -0.99999999999948
  outer loop
    vertex 10.000000000000004 3.9999999961147325e-06 -3.399995999991999
    vertex 2.8199664825478975e-15 -1.9999959999999997 -3.399999999991999
    vertex 2.8199664825478975e-15 -1.762479051592436e-15 -3.399999999991999
  endloop
endfacet
facet normal 1.999997999924794e-07 1.0000019999663986e-06 -0.99999999999948
  outer loop
    vertex 2.8199664825478975e-15 -1.9999959999999997 -3.399999999991999
    vertex 10.000000000000004 3.9999999961147325e-06 -3.399995999991999
    vertex 10.000000000000004 -1.9999959999999948 -3.399999999991999
  endloop
endfacet
facet normal -1.0 2.819966764545108e-16 2.819966763326883e-22
  outer loop
    vertex 10.00000000000001 20.000000000000007 -1.4
    vertex 10.000000000000004 3.9999999961147325e-06 -3.399995999991999
    vertex 10.000000000000004 -2.334954964316854e-15 -1.3999959999999998
  endloop
endfacet
facet normal -1.0 2.819966764545108e-16 2.819966763326883e-22
  outer loop
    vertex 10.000000000000004 3.9999999961147325e-06 -3.399995999991999
    vertex 10.00000000000001 20.000000000000007 -1.4
    vertex 10.00000000000001 20.000000000000007 -3.3999999999999995
  endloop
endfacet
facet normal -8.94419891214596e-08 0.9999999999997811 6.558760602818863e-07
  outer loop
    vertex 0.0 0.0 0.0
    vertex 10.000000000000004 3.9999999961147325e-06 -3.399995999991999
    vertex 2.8199664825478975e-15 -1.762479051592436e-15 -3.399999999991999
  endloop
endfacet
facet normal -8.94419891214596e-08 0.9999999999997811 6.558760602818863e-07
  outer loop
    vertex 10.000000000000004 3.9999999961147325e-06 -3.399995999991999
    vertex 0.0 0.0 0.0
    vertex 10.000000000000004 -2.334954964316854e-15 -1.3999959999999998
  endloop
endfacet
facet normal -8.94419891214596e-08 0.9999999999997811 6.558760602818863e-07
  outer loop
    vertex 10.000000000000004 -2.334954964316854e-15 -1.3999959999999998
    vertex 0.0 0.0 0.0
    vertex 11.750000000000014 4.850115182310435e-16 -1.399992
  endloop
endfacet
facet normal -8.94419891214596e-08 0.9999999999997811 6.558760602818863e-07
  outer loop
    vertex 11.750000000000014 4.850115182310435e-16 -1.399992
    vertex 0.0 0.0 0.0
    vertex 11.750000000000014 4.850115182310435e-16 0.0
  endloop
endfacet
facet normal -1.0 0.0 0.0
  outer loop
    vertex 11.750000000000014 20.000000000000004 -0.0025711577486522376
    vertex 11.750000000000014 4.850115182310435e-16 -1.399992
    vertex 11.750000000000014 4.850115182310435e-16 0.0
  endloop
endfacet
facet normal -1.0 0.0 0.0
  outer loop
    vertex 11.750000000000014 4.850115182310435e-16 -1.399992
    vertex 11.750000000000014 20.000000000000004 -0.0025711577486522376
    vertex 11.750000000000014 20.000000000000007 -1.4
  endloop
endfacet
facet normal 1.0291184112343487e-19 -0.00012855788637026547 -0.999999991736435
  outer loop
    vertex 11.750000000000014 20.000000000000004 -0.0025711577486522376
    vertex 0.0 0.0 0.0
    vertex -6.621951941390679e-17 20.000000000000004 -0.00257115774865224
  endloop
endfacet
facet normal 1.0291184112343487e-19 -0.00012855788637026547 -0.999999991736435
  outer loop
    vertex 0.0 0.0 0.0
    vertex 11.750000000000014 20.000000000000004 -0.0025711577486522376
    vertex 11.750000000000014 4.850115182310435e-16 0.0
  endloop
endfacet
facet normal 9.613522099595093e-17 4.983389142121924e-17 1.0
  outer loop
    vertex 11.00000000000001 -1.2202459169219755 1.9999999999999998
    vertex -6.599921554899335e-16 20.000000000000004 1.9999999999999998
    vertex -4.229949723821846e-15 -1.2202459169219797 1.9999999999999998
  endloop
endfacet
facet normal 9.613522099595093e-17 4.983389142121924e-17 1.0
  outer loop
    vertex -6.599921554899335e-16 20.000000000000004 1.9999999999999998
    vertex 11.00000000000001 -1.2202459169219755 1.9999999999999998
    vertex 11.00000000000001 19.999999999999993 1.9999999999999978
  endloop
endfacet
facet normal 1.3106752670425358e-16 0.128822018648291 -0.9916677303973239
  outer loop
    vertex 12.75000000000001 21.00221951775973 -3.2698072575631794
    vertex 10.00000000000001 20.000000000000007 -3.3999999999999995
    vertex 10.00000000000001 21.00221951775973 -3.2698072575631794
  endloop
endfacet
facet normal 1.3106752670425358e-16 0.128822018648291 -0.9916677303973239
  outer loop
    vertex 10.00000000000001 20.000000000000007 -3.3999999999999995
    vertex 12.75000000000001 21.00221951775973 -3.2698072575631794
    vertex 12.75000000000001 20.000000000000004 -3.3999999999999995
  endloop
endfacet
facet normal 0.0 0.253612070887268 -0.9673060102678323
  outer loop
    vertex 12.75000000000001 21.97981809581197 -3.013496641021441
    vertex 10.00000000000001 21.00221951775973 -3.2698072575631794
    vertex 10.00000000000001 21.97981809581197 -3.013496641021441
  endloop
endfacet
facet normal 0.0 0.253612070887268 -0.9673060102678323
  outer loop
    vertex 10.00000000000001 21.00221951775973 -3.2698072575631794
    vertex 12.75000000000001 21.97981809581197 -3.013496641021441
    vertex 12.75000000000001 21.00221951775973 -3.2698072575631794
  endloop
endfacet
facet normal 0.0 0.37430221756933996 -0.9273067722834092
  outer loop
    vertex 12.75000000000001 22.91699182613074 -2.635211680757141
    vertex 10.00000000000001 21.97981809581197 -3.013496641021441
    vertex 10.00000000000001 22.91699182613074 -2.635211680757141
  endloop
endfacet
facet normal 0.0 0.37430221756933996 -0.9273067722834092
  outer loop
    vertex 10.00000000000001 21.97981809581197 -3.013496641021441
    vertex 12.75000000000001 22.91699182613074 -2.635211680757141
    vertex 12.75000000000001 21.97981809581197 -3.013496641021441
  endloop
endfacet
facet normal 0.0 0.4889413756829021 -0.8723166461470923
  outer loop
    vertex 12.75000000000001 23.798590310821822 -2.1410677505585034
    vertex 10.00000000000001 22.91699182613074 -2.635211680757141
    vertex 10.00000000000001 23.798590310821822 -2.1410677505585034
  endloop
endfacet
facet normal 0.0 0.4889413756829021 -0.8723166461470923
  outer loop
    vertex 10.00000000000001 22.91699182613074 -2.635211680757141
    vertex 12.75000000000001 23.798590310821822 -2.1410677505585034
    vertex 12.75000000000001 22.91699182613074 -2.635211680757141
  endloop
endfacet
facet normal 0.0 0.5956762828034005 -0.8032246050175027
  outer loop
    vertex 12.75000000000001 24.61036158422088 -1.5390532061778615
    vertex 10.00000000000001 23.798590310821822 -2.1410677505585034
    vertex 10.00000000000001 24.61036158422088 -1.5390532061778603
  endloop
endfacet
facet normal 0.0 0.5956762828034005 -0.8032246050175027
  outer loop
    vertex 10.00000000000001 23.798590310821822 -2.1410677505585034
    vertex 12.75000000000001 24.61036158422088 -1.5390532061778615
    vertex 12.75000000000001 23.798590310821822 -2.1410677505585034
  endloop
endfacet
facet normal 0.0 0.6927814570273588 -0.7211475943238317
  outer loop
    vertex 12.75000000000001 25.339182510890783 -0.8389002451687786
    vertex 11.750000000000012 24.755108364177232 -1.4000000000000004
    vertex 11.750000000000009 25.339182510890783 -0.8389002451687786
  endloop
endfacet
facet normal 0.0 0.6927814570273588 -0.7211475943238317
  outer loop
    vertex 10.000000000000012 24.755108364177232 -1.3999999999999992
    vertex 12.75000000000001 24.61036158422088 -1.5390532061778615
    vertex 10.00000000000001 24.61036158422088 -1.5390532061778603
  endloop
endfacet
facet normal 0.0 0.6927814570273588 -0.7211475943238317
  outer loop
    vertex 12.75000000000001 24.61036158422088 -1.5390532061778615
    vertex 10.000000000000012 24.755108364177232 -1.3999999999999992
    vertex 11.750000000000012 24.755108364177232 -1.4000000000000004
  endloop
endfacet
facet normal 0.0 0.6927814570273588 -0.7211475943238317
  outer loop
    vertex 12.75000000000001 24.61036158422088 -1.5390532061778615
    vertex 11.750000000000012 24.755108364177232 -1.4000000000000004
    vertex 12.75000000000001 25.339182510890783 -0.8389002451687786
  endloop
endfacet
facet normal 0.0 0.7786870912000452 -0.627412475169575
  outer loop
    vertex 11.750000000000009 25.97327093489239 -0.051927575688496604
    vertex 12.75000000000001 25.339182510890783 -0.8389002451687786
    vertex 11.750000000000009 25.339182510890783 -0.8389002451687786
  endloop
endfacet
facet normal 0.0 0.7786870912000452 -0.627412475169575
  outer loop
    vertex 12.75000000000001 25.339182510890783 -0.8389002451687786
    vertex 11.750000000000009 25.97327093489239 -0.051927575688496604
    vertex 12.75000000000001 25.97327093489239 -0.051927575688496604
  endloop
endfacet
facet normal 0.0 0.852004430497285 -0.5235345742288633
  outer loop
    vertex 11.750000000000009 26.502376150712987 0.8091425623102637
    vertex 12.75000000000001 25.97327093489239 -0.051927575688496604
    vertex 11.750000000000009 25.97327093489239 -0.051927575688496604
  endloop
endfacet
facet normal 0.0 0.852004430497285 -0.5235345742288633
  outer loop
    vertex 12.75000000000001 25.97327093489239 -0.051927575688496604
    vertex 11.750000000000009 26.502376150712987 0.8091425623102637
    vertex 12.75000000000001 26.502376150712987 0.8091425623102637
  endloop
endfacet
facet normal 0.0 0.9115482231061369 -0.41119318689886447
  outer loop
    vertex 11.750000000000009 26.91794461668974 1.7303900654534152
    vertex 12.75000000000001 26.502376150712987 0.8091425623102637
    vertex 11.750000000000009 26.502376150712987 0.8091425623102637
  endloop
endfacet
facet normal 0.0 0.9115482231061369 -0.41119318689886447
  outer loop
    vertex 12.75000000000001 26.502376150712987 0.8091425623102637
    vertex 11.750000000000009 26.91794461668974 1.7303900654534152
    vertex 12.75000000000001 26.91794461668974 1.7303900654534152
  endloop
endfacet
facet normal 1.5716707561333926e-16 0.34202014332566755 -0.9396926207859089
  outer loop
    vertex 2.8199664825478975e-15 27.187791178829386 2.613570881466409
    vertex 11.750000000000014 20.000000000000004 -0.0025711577486522376
    vertex -6.621951941390679e-17 20.000000000000004 -0.00257115774865224
  endloop
endfacet
facet normal 1.5716707561333926e-16 0.34202014332566755 -0.9396926207859089
  outer loop
    vertex 11.750000000000014 20.000000000000004 -0.0025711577486522376
    vertex 2.8199664825478975e-15 27.187791178829386 2.613570881466409
    vertex 10.50000183360579 27.187791178829386 2.613570881466409
  endloop
endfacet
facet normal 1.5716707561333926e-16 0.34202014332566755 -0.9396926207859089
  outer loop
    vertex 11.750000000000014 20.000000000000004 -0.0025711577486522376
    vertex 10.50000183360579 27.187791178829386 2.613570881466409
    vertex 11.750000000000012 27.187791178829386 2.613570881466415
  endloop
endfacet
facet normal -1.0 0.0 0.0
  outer loop
    vertex -12.750000000000016 20.308572216239806 0.2499999999999977
    vertex -12.750000000000016 20.000000000000007 -3.3999999999999986
    vertex -12.750000000000016 20.000000000000007 0.24999999999999795
  endloop
endfacet
facet normal -1.0 0.0 0.0
  outer loop
    vertex -12.750000000000016 20.000000000000007 -3.3999999999999986
    vertex -12.750000000000016 20.308572216239806 0.2499999999999977
    vertex -12.750000000000016 21.00221951775972 -3.2698072575631785
  endloop
endfacet
facet normal -1.0 0.0 0.0
  outer loop
    vertex -12.750000000000016 21.00221951775972 -3.2698072575631785
    vertex -12.750000000000016 20.308572216239806 0.2499999999999977
    vertex -12.750000000000016 27.22532093693365 2.767490652231379
  endloop
endfacet
facet normal -1.0 0.0 0.0
  outer loop
    vertex -12.750000000000016 21.00221951775972 -3.2698072575631785
    vertex -12.750000000000016 27.22532093693365 2.767490652231379
    vertex -12.750000000000016 21.97981809581197 -3.0134966410214408
  endloop
endfacet
facet normal -1.0 0.0 0.0
  outer loop
    vertex -12.750000000000016 21.97981809581197 -3.0134966410214408
    vertex -12.750000000000016 27.22532093693365 2.767490652231379
    vertex -12.750000000000016 22.916991826130726 -2.6352116807571404
  endloop
endfacet
facet normal -1.0 0.0 0.0
  outer loop
    vertex -12.750000000000016 22.916991826130726 -2.6352116807571404
    vertex -12.750000000000016 27.22532093693365 2.767490652231379
    vertex -12.750000000000016 23.798590310821837 -2.141067750558503
  endloop
endfacet
facet normal -1.0 0.0 0.0
  outer loop
    vertex -12.750000000000016 23.798590310821837 -2.141067750558503
    vertex -12.750000000000016 27.22532093693365 2.767490652231379
    vertex -12.750000000000016 24.61036158422093 -1.539053206177861
  endloop
endfacet
facet normal -1.0 0.0 0.0
  outer loop
    vertex -12.750000000000016 24.61036158422093 -1.539053206177861
    vertex -12.750000000000016 27.22532093693365 2.767490652231379
    vertex -12.750000000000016 25.339182510890847 -0.8389002451687783
  endloop
endfacet
facet normal -1.0 0.0 0.0
  outer loop
    vertex -12.750000000000016 25.339182510890847 -0.8389002451687783
    vertex -12.750000000000016 27.22532093693365 2.767490652231379
    vertex -12.750000000000016 25.973270934892447 -0.05192757568849625
  endloop
endfacet
facet normal -1.0 0.0 0.0
  outer loop
    vertex -12.750000000000016 25.973270934892447 -0.05192757568849625
    vertex -12.750000000000016 27.22532093693365 2.767490652231379
    vertex -12.750000000000016 26.50237615071303 0.809142562310264
  endloop
endfacet
facet normal -1.0 0.0 0.0
  outer loop
    vertex -12.750000000000016 26.50237615071303 0.809142562310264
    vertex -12.750000000000016 27.22532093693365 2.767490652231379
    vertex -12.750000000000016 26.91794461668978 1.7303900654534157
  endloop
endfacet
facet normal -1.0 0.0 0.0
  outer loop
    vertex -12.750000000000016 26.91794461668978 1.7303900654534157
    vertex -12.750000000000016 27.22532093693365 2.767490652231379
    vertex -12.750000000000016 27.2132582319966 2.696922000040252
  endloop
endfacet
facet normal -1.594033205181111e-17 0.911548223106139 -0.4111931868988599
  outer loop
    vertex -12.750000000000016 26.91794461668978 1.7303900654534157
    vertex -11.75000000000001 26.50237615071303 0.809142562310264
    vertex -12.750000000000016 26.50237615071303 0.809142562310264
  endloop
endfacet
facet normal -1.594033205181111e-17 0.911548223106139 -0.4111931868988599
  outer loop
    vertex -11.75000000000001 26.50237615071303 0.809142562310264
    vertex -12.750000000000016 26.91794461668978 1.7303900654534157
    vertex -11.75000000000001 26.91794461668978 1.7303900654534157
  endloop
endfacet
facet normal 0.0 0.25361207088726523 -0.9673060102678328
  outer loop
    vertex -10.022261000000007 21.97981809581197 -3.0134966410214408
    vertex -12.750000000000016 21.00221951775972 -3.2698072575631785
    vertex -12.750000000000016 21.97981809581197 -3.0134966410214408
  endloop
endfacet
facet normal 0.0 0.25361207088726523 -0.9673060102678328
  outer loop
    vertex -12.750000000000016 21.00221951775972 -3.2698072575631785
    vertex -10.022261000000007 21.97981809581197 -3.0134966410214408
    vertex -10.022261000000007 21.00221951775972 -3.2698072575631785
  endloop
endfacet
facet normal 2.4922322970050166e-19 0.1288220186482928 -0.9916677303973237
  outer loop
    vertex -10.022261000000007 21.00221951775972 -3.2698072575631785
    vertex -12.750000000000016 20.000000000000007 -3.3999999999999986
    vertex -12.750000000000016 21.00221951775972 -3.2698072575631785
  endloop
endfacet
facet normal 2.4922322970050166e-19 0.1288220186482928 -0.9916677303973237
  outer loop
    vertex -12.750000000000016 20.000000000000007 -3.3999999999999986
    vertex -10.022261000000007 21.00221951775972 -3.2698072575631785
    vertex -10.000000000000009 20.000000000000007 -3.3999999999999986
  endloop
endfacet
facet normal 8.980975415999274e-17 0.3420201433256673 -0.9396926207859089
  outer loop
    vertex -10.50000275039859 27.187791178829386 2.613570881466409
    vertex -11.750000000000016 20.000000000000007 -0.0025711577486515393
    vertex -11.750000000000016 27.18779117882941 2.6135708814664156
  endloop
endfacet
facet normal 8.980975415999274e-17 0.3420201433256673 -0.9396926207859089
  outer loop
    vertex -11.750000000000016 20.000000000000007 -0.0025711577486515393
    vertex -10.50000275039859 27.187791178829386 2.613570881466409
    vertex -6.621951941390679e-17 20.000000000000004 -0.00257115774865224
  endloop
endfacet
facet normal 8.980975415999274e-17 0.3420201433256673 -0.9396926207859089
  outer loop
    vertex -6.621951941390679e-17 20.000000000000004 -0.00257115774865224
    vertex -10.50000275039859 27.187791178829386 2.613570881466409
    vertex 2.8199664825478975e-15 27.187791178829386 2.613570881466409
  endloop
endfacet
facet normal -0.0 0.778687091200048 -0.6274124751695714
  outer loop
    vertex -12.750000000000016 25.973270934892447 -0.05192757568849625
    vertex -11.75000000000001 25.339182510890847 -0.8389002451687783
    vertex -12.750000000000016 25.339182510890847 -0.8389002451687783
  endloop
endfacet
facet normal -0.0 0.778687091200048 -0.6274124751695714
  outer loop
    vertex -11.75000000000001 25.339182510890847 -0.8389002451687783
    vertex -12.750000000000016 25.973270934892447 -0.05192757568849625
    vertex -11.75000000000001 25.973270934892447 -0.05192757568849625
  endloop
endfacet
facet normal -0.0 0.85200443049729 -0.5235345742288553
  outer loop
    vertex -12.750000000000016 26.50237615071303 0.809142562310264
    vertex -11.75000000000001 25.973270934892447 -0.05192757568849625
    vertex -12.750000000000016 25.973270934892447 -0.05192757568849625
  endloop
endfacet
facet normal -0.0 0.85200443049729 -0.5235345742288553
  outer loop
    vertex -11.75000000000001 25.973270934892447 -0.05192757568849625
    vertex -12.750000000000016 26.50237615071303 0.809142562310264
    vertex -11.75000000000001 26.50237615071303 0.809142562310264
  endloop
endfacet
facet normal 1.6215903327325393e-17 0.37430221756934545 -0.927306772283407
  outer loop
    vertex -10.022261000000007 22.916991826130726 -2.6352116807571404
    vertex -12.750000000000016 21.97981809581197 -3.0134966410214408
    vertex -12.750000000000016 22.916991826130726 -2.6352116807571404
  endloop
endfacet
facet normal 1.6215903327325393e-17 0.37430221756934545 -0.927306772283407
  outer loop
    vertex -12.750000000000016 21.97981809581197 -3.0134966410214408
    vertex -10.022261000000007 22.916991826130726 -2.6352116807571404
    vertex -10.022261000000007 21.97981809581197 -3.0134966410214408
  endloop
endfacet
facet normal 0.0 0.5956762828033846 -0.8032246050175147
  outer loop
    vertex -10.022261000000007 24.61036158422093 -1.5390532061778606
    vertex -12.750000000000016 23.798590310821837 -2.141067750558503
    vertex -12.750000000000016 24.61036158422093 -1.539053206177861
  endloop
endfacet
facet normal 0.0 0.5956762828033846 -0.8032246050175147
  outer loop
    vertex -12.750000000000016 23.798590310821837 -2.141067750558503
    vertex -10.022261000000007 24.61036158422093 -1.5390532061778606
    vertex -10.022261000000007 23.798590310821837 -2.141067750558503
  endloop
endfacet
facet normal 0.0 0.6927814570273534 -0.7211475943238371
  outer loop
    vertex -11.75000000000001 25.339182510890847 -0.8389002451687783
    vertex -12.750000000000016 24.61036158422093 -1.539053206177861
    vertex -12.750000000000016 25.339182510890847 -0.8389002451687783
  endloop
endfacet
facet normal 0.0 0.6927814570273534 -0.7211475943238371
  outer loop
    vertex -12.750000000000016 24.61036158422093 -1.539053206177861
    vertex -11.75000000000001 25.339182510890847 -0.8389002451687783
    vertex -11.750000000000014 24.755108364177282 -1.399999999999999
  endloop
endfacet
facet normal 0.0 0.6927814570273534 -0.7211475943238371
  outer loop
    vertex -11.750000000000014 24.755108364177282 -1.399999999999999
    vertex -10.022261000000007 24.61036158422093 -1.5390532061778606
    vertex -12.750000000000016 24.61036158422093 -1.539053206177861
  endloop
endfacet
facet normal 0.0 0.6927814570273534 -0.7211475943238371
  outer loop
    vertex -10.022261000000007 24.61036158422093 -1.5390532061778606
    vertex -11.750000000000014 24.755108364177282 -1.399999999999999
    vertex -10.022261000000011 24.755108364177282 -1.3999999999999986
  endloop
endfacet
facet normal 0.0 0.48894137568288787 -0.8723166461471002
  outer loop
    vertex -10.022261000000007 23.798590310821837 -2.141067750558503
    vertex -12.750000000000016 22.916991826130726 -2.6352116807571404
    vertex -12.750000000000016 23.798590310821837 -2.141067750558503
  endloop
endfacet
facet normal 0.0 0.48894137568288787 -0.8723166461471002
  outer loop
    vertex -12.750000000000016 22.916991826130726 -2.6352116807571404
    vertex -10.022261000000007 23.798590310821837 -2.141067750558503
    vertex -10.022261000000007 22.916991826130726 -2.6352116807571404
  endloop
endfacet
facet normal 1.1428571428162461e-06 2.99999999989266e-07 0.9999999999993021
  outer loop
    vertex -10.000000000000004 1.4099832412739487e-15 -1.3999959999999994
    vertex -11.750000000000016 20.000000000000007 -1.3999999999999992
    vertex -11.750000000000016 4.229949723821846e-15 -1.3999919999999995
  endloop
endfacet
facet normal 1.1428571428162461e-06 2.99999999989266e-07 0.9999999999993021
  outer loop
    vertex -11.750000000000016 20.000000000000007 -1.3999999999999992
    vertex -10.000000000000004 1.4099832412739487e-15 -1.3999959999999994
    vertex -10.000000000000009 20.000000000000007 -1.3999999999999992
  endloop
endfacet
facet normal -1.9999980006297826e-07 1.0000019999663988e-06 -0.99999999999948
  outer loop
    vertex 2.8199664825478975e-15 -1.762479051592436e-15 -3.399999999991999
    vertex -10.000000000000004 -1.9999959999999937 -3.3999999999919983
    vertex -10.000000000000004 3.999999999859671e-06 -3.3999959999919986
  endloop
endfacet
facet normal -1.9999980006297826e-07 1.0000019999663988e-06 -0.99999999999948
  outer loop
    vertex -10.000000000000004 -1.9999959999999937 -3.3999999999919983
    vertex 2.8199664825478975e-15 -1.762479051592436e-15 -3.399999999991999
    vertex 2.8199664825478975e-15 -1.9999959999999997 -3.399999999991999
  endloop
endfacet
facet normal 1.0 2.8199667645451086e-16 2.819966764233929e-22
  outer loop
    vertex -10.000000000000004 3.999999999859671e-06 -3.3999959999919986
    vertex -10.000000000000009 20.000000000000007 -1.3999999999999992
    vertex -10.000000000000004 1.4099832412739487e-15 -1.3999959999999994
  endloop
endfacet
facet normal 1.0 2.8199667645451086e-16 2.819966764233929e-22
  outer loop
    vertex -10.000000000000009 20.000000000000007 -1.3999999999999992
    vertex -10.000000000000004 3.999999999859671e-06 -3.3999959999919986
    vertex -10.000000000000009 20.000000000000007 -3.3999999999999986
  endloop
endfacet
facet normal 8.944198946201754e-08 0.9999999999997811 6.558760603679213e-07
  outer loop
    vertex -10.000000000000004 3.999999999859671e-06 -3.3999959999919986
    vertex 0.0 0.0 0.0
    vertex 2.8199664825478975e-15 -1.762479051592436e-15 -3.399999999991999
  endloop
endfacet
facet normal 8.944198946201754e-08 0.9999999999997811 6.558760603679213e-07
  outer loop
    vertex 0.0 0.0 0.0
    vertex -10.000000000000004 3.999999999859671e-06 -3.3999959999919986
    vertex -10.000000000000004 1.4099832412739487e-15 -1.3999959999999994
  endloop
endfacet
facet normal 8.944198946201754e-08 0.9999999999997811 6.558760603679213e-07
  outer loop
    vertex 0.0 0.0 0.0
    vertex -10.000000000000004 1.4099832412739487e-15 -1.3999959999999994
    vertex -11.750000000000016 4.229949723821846e-15 -1.3999919999999995
  endloop
endfacet
facet normal 8.944198946201754e-08 0.9999999999997811 6.558760603679213e-07
  outer loop
    vertex 0.0 0.0 0.0
    vertex -11.750000000000016 4.229949723821846e-15 -1.3999919999999995
    vertex -11.750000000000016 4.229949723821846e-15 3.524958103184872e-16
  endloop
endfacet
facet normal 1.0 -0.0 -0.0
  outer loop
    vertex -11.750000000000016 20.000000000000007 -1.3999999999999992
    vertex -11.750000000000016 4.229949723821846e-15 3.524958103184872e-16
    vertex -11.750000000000016 4.229949723821846e-15 -1.3999919999999995
  endloop
endfacet
facet normal 1.0 -0.0 -0.0
  outer loop
    vertex -11.750000000000016 4.229949723821846e-15 3.524958103184872e-16
    vertex -11.750000000000016 20.000000000000007 -1.3999999999999992
    vertex -11.750000000000016 20.000000000000007 -0.0025711577486515393
  endloop
endfacet
facet normal -4.487250777774149e-17 -0.0001285578863702568 -0.999999991736435
  outer loop
    vertex -6.621951941390679e-17 20.000000000000004 -0.00257115774865224
    vertex -11.750000000000016 4.229949723821846e-15 3.524958103184872e-16
    vertex -11.750000000000016 20.000000000000007 -0.0025711577486515393
  endloop
endfacet
facet normal -4.487250777774149e-17 -0.0001285578863702568 -0.999999991736435
  outer loop
    vertex -11.750000000000016 4.229949723821846e-15 3.524958103184872e-16
    vertex -6.621951941390679e-17 20.000000000000004 -0.00257115774865224
    vertex 0.0 0.0 0.0
  endloop
endfacet
facet normal 4.3408305964100543e-07 -2.7361368716216177e-08 -0.9999999999999054
  outer loop
    vertex -10.000000000000009 20.000000000000007 -3.3999999999999986
    vertex -12.750000000000016 -0.22024608288476244 -3.3999999999999995
    vertex -12.750000000000016 20.000000000000007 -3.3999999999999986
  endloop
endfacet
facet normal 4.3408305964100543e-07 -2.7361368716216177e-08 -0.9999999999999054
  outer loop
    vertex -12.750000000000016 -0.22024608288476244 -3.3999999999999995
    vertex -10.000000000000009 20.000000000000007 -3.3999999999999986
    vertex -11.000000000001657 -1.999998583022512 -3.400000208972142
  endloop
endfacet
facet normal 4.3408305964100543e-07 -2.7361368716216177e-08 -0.9999999999999054
  outer loop
    vertex -11.000000000001657 -1.999998583022512 -3.400000208972142
    vertex -10.000000000000009 20.000000000000007 -3.3999999999999986
    vertex -10.000000000000004 -1.9999959999999937 -3.3999999999919983
  endloop
endfacet
facet normal 4.3408305964100543e-07 -2.7361368716216177e-08 -0.9999999999999054
  outer loop
    vertex -10.000000000000004 -1.9999959999999937 -3.3999999999919983
    vertex -10.000000000000009 20.000000000000007 -3.3999999999999986
    vertex -10.000000000000004 3.999999999859671e-06 -3.3999959999919986
  endloop
endfacet
facet normal -1.0 0.0 0.0
  outer loop
    vertex -12.750000000000016 20.000000000000007 0.24999999999999795
    vertex -12.750000000000016 -0.22024608288476244 -3.3999999999999995
    vertex -12.750000000000016 -0.8961720088106875 0.25000000000000044
  endloop
endfacet
facet normal -1.0 0.0 0.0
  outer loop
    vertex -12.750000000000016 -0.22024608288476244 -3.3999999999999995
    vertex -12.750000000000016 20.000000000000007 0.24999999999999795
    vertex -12.750000000000016 20.000000000000007 -3.3999999999999986
  endloop
endfacet
facet normal 9.0745631984037e-08 -0.9832818830418573 -0.18208991867110927
  outer loop
    vertex -5.639932965095795e-15 -2.675925014490653 0.24999999999999972
    vertex -10.000000000000004 -1.9999959999999937 -3.3999999999919983
    vertex 2.8199664825478975e-15 -1.9999959999999997 -3.399999999991999
  endloop
endfacet
facet normal 9.0745631984037e-08 -0.9832818830418573 -0.18208991867110927
  outer loop
    vertex -10.000000000000004 -1.9999959999999937 -3.3999999999919983
    vertex -5.639932965095795e-15 -2.675925014490653 0.24999999999999972
    vertex -11.000000000000016 -2.675925353046797 0.24999993730441697
  endloop
endfacet
facet normal 9.0745631984037e-08 -0.9832818830418573 -0.18208991867110927
  outer loop
    vertex -11.000000000000016 -2.675925353046797 0.24999993730441697
    vertex -11.000000000001657 -1.999998583022512 -3.400000208972142
    vertex -10.000000000000004 -1.9999959999999937 -3.3999999999919983
  endloop
endfacet
facet normal -6.409014733063396e-17 3.322259428081285e-17 1.0
  outer loop
    vertex -4.229949723821846e-15 -1.2202459169219797 1.9999999999999998
    vertex -11.000000000000016 20.000000000000004 1.9999999999999984
    vertex -11.000000000000016 -1.2202459169219744 1.9999999999999998
  endloop
endfacet
facet normal -6.409014733063396e-17 3.322259428081285e-17 1.0
  outer loop
    vertex -11.000000000000016 20.000000000000004 1.9999999999999984
    vertex -4.229949723821846e-15 -1.2202459169219797 1.9999999999999998
    vertex -6.599921554899335e-16 20.000000000000004 1.9999999999999998
  endloop
endfacet
facet normal -9.074563210785542e-08 -0.9832818830418573 -0.18208991867110938
  outer loop
    vertex 11.00000000000001 -2.6759253530467983 0.24999993730441644
    vertex 10.000000000000004 -1.9999959999999948 -3.399999999991999
    vertex 11.000000000001652 -1.999998583022513 -3.4000002089721435
  endloop
endfacet
facet normal -9.074563210785542e-08 -0.9832818830418573 -0.18208991867110938
  outer loop
    vertex 10.000000000000004 -1.9999959999999948 -3.399999999991999
    vertex 11.00000000000001 -2.6759253530467983 0.24999993730441644
    vertex 2.8199664825478975e-15 -1.9999959999999997 -3.399999999991999
  endloop
endfacet
facet normal -9.074563210785542e-08 -0.9832818830418573 -0.18208991867110938
  outer loop
    vertex 2.8199664825478975e-15 -1.9999959999999997 -3.399999999991999
    vertex 11.00000000000001 -2.6759253530467983 0.24999993730441644
    vertex -5.639932965095795e-15 -2.675925014490653 0.24999999999999972
  endloop
endfacet
facet normal 1.0 -0.0 -0.0
  outer loop
    vertex 12.75000000000001 21.00221951775973 -3.2698072575631794
    vertex 12.75000000000001 20.000000000000004 0.25000000000000117
    vertex 12.75000000000001 20.000000000000004 -3.3999999999999995
  endloop
endfacet
facet normal 1.0 -0.0 -0.0
  outer loop
    vertex 12.75000000000001 20.000000000000004 0.25000000000000117
    vertex 12.75000000000001 21.00221951775973 -3.2698072575631794
    vertex 12.75000000000001 20.308572216239824 0.25000000000000105
  endloop
endfacet
facet normal 1.0 -0.0 -0.0
  outer loop
    vertex 12.75000000000001 20.308572216239824 0.25000000000000105
    vertex 12.75000000000001 21.00221951775973 -3.2698072575631794
    vertex 12.75000000000001 27.225320936933617 2.7674906522313725
  endloop
endfacet
facet normal 1.0 -0.0 -0.0
  outer loop
    vertex 12.75000000000001 27.225320936933617 2.7674906522313725
    vertex 12.75000000000001 21.00221951775973 -3.2698072575631794
    vertex 12.75000000000001 21.97981809581197 -3.013496641021441
  endloop
endfacet
facet normal 1.0 -0.0 -0.0
  outer loop
    vertex 12.75000000000001 27.225320936933617 2.7674906522313725
    vertex 12.75000000000001 21.97981809581197 -3.013496641021441
    vertex 12.75000000000001 22.91699182613074 -2.635211680757141
  endloop
endfacet
facet normal 1.0 -0.0 -0.0
  outer loop
    vertex 12.75000000000001 27.225320936933617 2.7674906522313725
    vertex 12.75000000000001 22.91699182613074 -2.635211680757141
    vertex 12.75000000000001 23.798590310821822 -2.1410677505585034
  endloop
endfacet
facet normal 1.0 -0.0 -0.0
  outer loop
    vertex 12.75000000000001 27.225320936933617 2.7674906522313725
    vertex 12.75000000000001 23.798590310821822 -2.1410677505585034
    vertex 12.75000000000001 24.61036158422088 -1.5390532061778615
  endloop
endfacet
facet normal 1.0 -0.0 -0.0
  outer loop
    vertex 12.75000000000001 27.225320936933617 2.7674906522313725
    vertex 12.75000000000001 24.61036158422088 -1.5390532061778615
    vertex 12.75000000000001 25.339182510890783 -0.8389002451687786
  endloop
endfacet
facet normal 1.0 -0.0 -0.0
  outer loop
    vertex 12.75000000000001 27.225320936933617 2.7674906522313725
    vertex 12.75000000000001 25.339182510890783 -0.8389002451687786
    vertex 12.75000000000001 25.97327093489239 -0.051927575688496604
  endloop
endfacet
facet normal 1.0 -0.0 -0.0
  outer loop
    vertex 12.75000000000001 27.225320936933617 2.7674906522313725
    vertex 12.75000000000001 25.97327093489239 -0.051927575688496604
    vertex 12.75000000000001 26.502376150712987 0.8091425623102637
  endloop
endfacet
facet normal 1.0 -0.0 -0.0
  outer loop
    vertex 12.75000000000001 27.225320936933617 2.7674906522313725
    vertex 12.75000000000001 26.502376150712987 0.8091425623102637
    vertex 12.75000000000001 26.91794461668974 1.7303900654534152
  endloop
endfacet
facet normal 1.0 -0.0 -0.0
  outer loop
    vertex 12.75000000000001 27.225320936933617 2.7674906522313725
    vertex 12.75000000000001 26.91794461668974 1.7303900654534152
    vertex 12.75000000000001 27.213258231996573 2.6969220000402516
  endloop
endfacet
facet normal 1.0 -0.0 -0.0
  outer loop
    vertex 12.75000000000001 -0.22024608288476358 -3.3999999999999995
    vertex 12.75000000000001 20.000000000000004 0.25000000000000117
    vertex 12.75000000000001 -0.896172008810688 0.24999999999999997
  endloop
endfacet
facet normal 1.0 -0.0 -0.0
  outer loop
    vertex 12.75000000000001 20.000000000000004 0.25000000000000117
    vertex 12.75000000000001 -0.22024608288476358 -3.3999999999999995
    vertex 12.75000000000001 20.000000000000004 -3.3999999999999995
  endloop
endfacet
facet normal -0.6159450135782395 -0.6056478606083777 0.5037880597916128
  outer loop
    vertex -12.750000000000016 -0.8961720088106875 0.25000000000000044
    vertex -11.000000000000016 -2.675925353046797 0.24999993730441697
    vertex -11.000000000000016 -1.2202459169219744 1.9999999999999998
  endloop
endfacet
facet normal 0.6159450135782397 -0.6056478606083776 0.5037880597916126
  outer loop
    vertex 12.75000000000001 -0.896172008810688 0.24999999999999997
    vertex 11.00000000000001 -1.2202459169219755 1.9999999999999998
    vertex 11.00000000000001 -2.6759253530467983 0.24999993730441644
  endloop
endfacet
facet normal 0.7071067811865472 1.0424110721488854e-17 0.7071067811865479
  outer loop
    vertex 12.75000000000001 -0.896172008810688 0.24999999999999997
    vertex 11.00000000000001 19.999999999999993 1.9999999999999978
    vertex 11.00000000000001 -1.2202459169219755 1.9999999999999998
  endloop
endfacet
facet normal 0.7071067811865472 1.0424110721488854e-17 0.7071067811865479
  outer loop
    vertex 11.00000000000001 19.999999999999993 1.9999999999999978
    vertex 12.75000000000001 -0.896172008810688 0.24999999999999997
    vertex 12.75000000000001 20.308572216239824 0.25000000000000105
  endloop
endfacet
facet normal 0.7071067811865472 1.0424110721488854e-17 0.7071067811865479
  outer loop
    vertex 12.75000000000001 20.308572216239824 0.25000000000000105
    vertex 12.75000000000001 -0.896172008810688 0.24999999999999997
    vertex 12.75000000000001 20.000000000000004 0.25000000000000117
  endloop
endfacet
facet normal 0.7071065814535045 -0.6952855560045557 -0.1287566622609272
  outer loop
    vertex 11.000000000001652 -1.999998583022513 -3.4000002089721435
    vertex 12.75000000000001 -0.896172008810688 0.24999999999999997
    vertex 11.00000000000001 -2.6759253530467983 0.24999993730441644
  endloop
endfacet
facet normal 0.7071065814535045 -0.6952855560045557 -0.1287566622609272
  outer loop
    vertex 12.75000000000001 -0.896172008810688 0.24999999999999997
    vertex 11.000000000001652 -1.999998583022513 -3.4000002089721435
    vertex 12.75000000000001 -0.22024608288476358 -3.3999999999999995
  endloop
endfacet
facet normal 0.7071067811865477 -0.2418447626479748 0.6644630243886748
  outer loop
    vertex 12.75000000000001 20.308572216239824 0.25000000000000105
    vertex 11.00000000000001 21.879385241571825 2.684040286651334
    vertex 11.00000000000001 19.999999999999993 1.9999999999999978
  endloop
endfacet
facet normal 0.7071067811865477 -0.2418447626479748 0.6644630243886748
  outer loop
    vertex 11.00000000000001 21.879385241571825 2.684040286651334
    vertex 12.75000000000001 20.308572216239824 0.25000000000000105
    vertex 12.75000000000001 27.225320936933617 2.7674906522313725
  endloop
endfacet
facet normal 0.7071067811865477 -0.2418447626479748 0.6644630243886748
  outer loop
    vertex 11.00000000000001 21.879385241571825 2.684040286651334
    vertex 12.75000000000001 27.225320936933617 2.7674906522313725
    vertex 11.00000000000001 27.426045914879182 4.702859671310143
  endloop
endfacet
facet normal -1.0008476769705363e-08 -0.76879440040957 0.6394960280556009
  outer loop
    vertex 11.00000000000001 -1.2202459169219755 1.9999999999999998
    vertex -5.639932965095795e-15 -2.675925014490653 0.24999999999999972
    vertex 11.00000000000001 -2.6759253530467983 0.24999993730441644
  endloop
endfacet
facet normal -1.0008476769705363e-08 -0.76879440040957 0.6394960280556009
  outer loop
    vertex -5.639932965095795e-15 -2.675925014490653 0.24999999999999972
    vertex 11.00000000000001 -1.2202459169219755 1.9999999999999998
    vertex -4.229949723821846e-15 -1.2202459169219797 1.9999999999999998
  endloop
endfacet
facet normal 1.0008476705109603e-08 -0.7687944004095698 0.639496028055601
  outer loop
    vertex -5.639932965095795e-15 -2.675925014490653 0.24999999999999972
    vertex -11.000000000000016 -1.2202459169219744 1.9999999999999998
    vertex -11.000000000000016 -2.675925353046797 0.24999993730441697
  endloop
endfacet
facet normal 1.0008476705109603e-08 -0.7687944004095698 0.639496028055601
  outer loop
    vertex -11.000000000000016 -1.2202459169219744 1.9999999999999998
    vertex -5.639932965095795e-15 -2.675925014490653 0.24999999999999972
    vertex -4.229949723821846e-15 -1.2202459169219797 1.9999999999999998
  endloop
endfacet
facet normal -0.7071065814535044 -0.6952855560045558 -0.12875666226092725
  outer loop
    vertex -12.750000000000016 -0.8961720088106875 0.25000000000000044
    vertex -11.000000000001657 -1.999998583022512 -3.400000208972142
    vertex -11.000000000000016 -2.675925353046797 0.24999993730441697
  endloop
endfacet
facet normal -0.7071065814535044 -0.6952855560045558 -0.12875666226092725
  outer loop
    vertex -11.000000000001657 -1.999998583022512 -3.400000208972142
    vertex -12.750000000000016 -0.8961720088106875 0.25000000000000044
    vertex -12.750000000000016 -0.22024608288476244 -3.3999999999999995
  endloop
endfacet
facet normal -0.7071067811865477 6.671430861752858e-17 0.7071067811865475
  outer loop
    vertex -11.000000000000016 20.000000000000004 1.9999999999999984
    vertex -12.750000000000016 -0.8961720088106875 0.25000000000000044
    vertex -11.000000000000016 -1.2202459169219744 1.9999999999999998
  endloop
endfacet
facet normal -0.7071067811865477 6.671430861752858e-17 0.7071067811865475
  outer loop
    vertex -12.750000000000016 -0.8961720088106875 0.25000000000000044
    vertex -11.000000000000016 20.000000000000004 1.9999999999999984
    vertex -12.750000000000016 20.000000000000007 0.24999999999999795
  endloop
endfacet
facet normal -0.7071067811865477 6.671430861752858e-17 0.7071067811865475
  outer loop
    vertex -12.750000000000016 20.000000000000007 0.24999999999999795
    vertex -11.000000000000016 20.000000000000004 1.9999999999999984
    vertex -12.750000000000016 20.308572216239806 0.2499999999999977
  endloop
endfacet
facet normal -0.7071067811865469 -0.24184476264797464 0.6644630243886758
  outer loop
    vertex -11.000000000000016 21.879385241571825 2.684040286651328
    vertex -12.750000000000016 20.308572216239806 0.2499999999999977
    vertex -11.000000000000016 20.000000000000004 1.9999999999999984
  endloop
endfacet
facet normal -0.7071067811865469 -0.24184476264797464 0.6644630243886758
  outer loop
    vertex -12.750000000000016 20.308572216239806 0.2499999999999977
    vertex -11.000000000000016 21.879385241571825 2.684040286651328
    vertex -12.750000000000016 27.22532093693365 2.767490652231379
  endloop
endfacet
facet normal -0.7071067811865469 -0.24184476264797464 0.6644630243886758
  outer loop
    vertex -12.750000000000016 27.22532093693365 2.767490652231379
    vertex -11.000000000000016 21.879385241571825 2.684040286651328
    vertex -11.000000000000016 27.426045914879214 4.702859671310151
  endloop
endfacet
facet normal -4.3408305950362166e-07 -2.7361368717255788e-08 -0.9999999999999054
  outer loop
    vertex 10.00000000000001 20.000000000000007 -3.3999999999999995
    vertex 10.000000000000004 -1.9999959999999948 -3.399999999991999
    vertex 10.000000000000004 3.9999999961147325e-06 -3.399995999991999
  endloop
endfacet
facet normal -4.3408305950362166e-07 -2.7361368717255788e-08 -0.9999999999999054
  outer loop
    vertex 10.000000000000004 -1.9999959999999948 -3.399999999991999
    vertex 10.00000000000001 20.000000000000007 -3.3999999999999995
    vertex 11.000000000001652 -1.999998583022513 -3.4000002089721435
  endloop
endfacet
facet normal -4.3408305950362166e-07 -2.7361368717255788e-08 -0.9999999999999054
  outer loop
    vertex 11.000000000001652 -1.999998583022513 -3.4000002089721435
    vertex 10.00000000000001 20.000000000000007 -3.3999999999999995
    vertex 12.75000000000001 20.000000000000004 -3.3999999999999995
  endloop
endfacet
facet normal -4.3408305950362166e-07 -2.7361368717255788e-08 -0.9999999999999054
  outer loop
    vertex 11.000000000001652 -1.999998583022513 -3.4000002089721435
    vertex 12.75000000000001 20.000000000000004 -3.3999999999999995
    vertex 12.75000000000001 -0.22024608288476358 -3.3999999999999995
  endloop
endfacet
facet normal -2.8682174591186826e-16 -0.3420201433256655 0.9396926207859096
  outer loop
    vertex -6.599921554899335e-16 20.000000000000004 1.9999999999999998
    vertex -11.000000000000016 21.879385241571825 2.684040286651328
    vertex -11.000000000000016 20.000000000000004 1.9999999999999984
  endloop
endfacet
facet normal -2.8682174591186826e-16 -0.3420201433256655 0.9396926207859096
  outer loop
    vertex -11.000000000000016 21.879385241571825 2.684040286651328
    vertex -6.599921554899335e-16 20.000000000000004 1.9999999999999998
    vertex -2.464806018915472e-16 21.879385241571825 2.6840402866513333
  endloop
endfacet
facet normal -1.2736965106844066e-16 -0.34202014332566616 0.9396926207859094
  outer loop
    vertex 11.00000000000001 19.999999999999993 1.9999999999999978
    vertex -2.464806018915472e-16 21.879385241571825 2.6840402866513333
    vertex -6.599921554899335e-16 20.000000000000004 1.9999999999999998
  endloop
endfacet
facet normal -1.2736965106844066e-16 -0.34202014332566616 0.9396926207859094
  outer loop
    vertex -2.464806018915472e-16 21.879385241571825 2.6840402866513333
    vertex 11.00000000000001 19.999999999999993 1.9999999999999978
    vertex 11.00000000000001 21.879385241571825 2.684040286651334
  endloop
endfacet
facet normal -6.160410171942919e-16 -0.34202014332566827 0.9396926207859086
  outer loop
    vertex 10.00000000000001 22.47705771903206 3.9657530507629133
    vertex 3.1585890108068068e-15 28.003923767282565 5.977367781102559
    vertex -7.049916206369744e-16 22.47705771903206 3.9657530507629097
  endloop
endfacet
facet normal -6.160410171942919e-16 -0.34202014332566827 0.9396926207859086
  outer loop
    vertex 3.1585890108068068e-15 28.003923767282565 5.977367781102559
    vertex 10.00000000000001 22.47705771903206 3.9657530507629133
    vertex 10.00000000000001 28.02191888097061 5.983917466847254
  endloop
endfacet
facet normal -3.24705485338787e-16 -0.34202014332566805 0.9396926207859086
  outer loop
    vertex -7.049916206369744e-16 22.47705771903206 3.9657530507629097
    vertex -10.000000000000018 28.003923767282604 5.977367781102571
    vertex -10.000000000000018 22.47705771903206 3.9657530507629057
  endloop
endfacet
facet normal -3.24705485338787e-16 -0.34202014332566805 0.9396926207859086
  outer loop
    vertex -10.000000000000018 28.003923767282604 5.977367781102571
    vertex -7.049916206369744e-16 22.47705771903206 3.9657530507629097
    vertex 3.1585890108068068e-15 28.003923767282565 5.977367781102559
  endloop
endfacet
facet normal -0.7071067412600854 -0.241844852138856 0.6644630343055042
  outer loop
    vertex -10.000000000000018 22.47705771903206 3.9657530507629057
    vertex -11.000000000000016 27.426045914879214 4.702859671310151
    vertex -11.000000000000016 21.879385241571825 2.684040286651328
  endloop
endfacet
facet normal -0.7071067412600854 -0.241844852138856 0.6644630343055042
  outer loop
    vertex -11.000000000000016 27.426045914879214 4.702859671310151
    vertex -10.000000000000018 22.47705771903206 3.9657530507629057
    vertex -10.000000000000018 28.003923767282604 5.977367781102571
  endloop
endfacet
facet normal -0.7071067412600854 -0.241844852138856 0.6644630343055042
  outer loop
    vertex -11.000000000000016 27.426045914879214 4.702859671310151
    vertex -10.000000000000018 28.003923767282604 5.977367781102571
    vertex -10.500002750398592 28.175384027051958 5.507684350142536
  endloop
endfacet
facet normal -8.845110257596389e-17 -0.9063077870366506 0.42261826174069833
  outer loop
    vertex 11.00000000000001 21.879385241571825 2.684040286651334
    vertex -7.049916206369744e-16 22.47705771903206 3.9657530507629097
    vertex -2.464806018915472e-16 21.879385241571825 2.6840402866513333
  endloop
endfacet
facet normal -8.845110257596389e-17 -0.9063077870366506 0.42261826174069833
  outer loop
    vertex -7.049916206369744e-16 22.47705771903206 3.9657530507629097
    vertex 11.00000000000001 21.879385241571825 2.684040286651334
    vertex 10.00000000000001 22.47705771903206 3.9657530507629133
  endloop
endfacet
facet normal 0.7071067610302105 -0.2418448074593265 0.6644630295286006
  outer loop
    vertex 11.00000000000001 27.426045914879182 4.702859671310143
    vertex 10.00000000000001 22.47705771903206 3.9657530507629133
    vertex 11.00000000000001 21.879385241571825 2.684040286651334
  endloop
endfacet
facet normal 0.7071067610302105 -0.2418448074593265 0.6644630295286006
  outer loop
    vertex 10.00000000000001 22.47705771903206 3.9657530507629133
    vertex 11.00000000000001 27.426045914879182 4.702859671310143
    vertex 10.00000000000001 28.02191888097061 5.983917466847254
  endloop
endfacet
facet normal 0.7071067610302105 -0.2418448074593265 0.6644630295286006
  outer loop
    vertex 10.00000000000001 28.02191888097061 5.983917466847254
    vertex 11.00000000000001 27.426045914879182 4.702859671310143
    vertex 10.500001833605786 28.194278901374904 5.514561521972721
  endloop
endfacet
facet normal -1.9626463556656674e-16 -0.9063077870366504 0.42261826174069866
  outer loop
    vertex -2.464806018915472e-16 21.879385241571825 2.6840402866513333
    vertex -10.000000000000018 22.47705771903206 3.9657530507629057
    vertex -11.000000000000016 21.879385241571825 2.684040286651328
  endloop
endfacet
facet normal -1.9626463556656674e-16 -0.9063077870366504 0.42261826174069866
  outer loop
    vertex -10.000000000000018 22.47705771903206 3.9657530507629057
    vertex -2.464806018915472e-16 21.879385241571825 2.6840402866513333
    vertex -7.049916206369744e-16 22.47705771903206 3.9657530507629097
  endloop
endfacet
facet normal 1.0 -9.167552697428848e-16 1.0560373472930899e-15
  outer loop
    vertex -11.750000000000014 24.755108364177282 -1.399999999999999
    vertex -11.750000000000016 20.000000000000007 -0.0025711577486515393
    vertex -11.750000000000016 20.000000000000007 -1.3999999999999992
  endloop
endfacet
facet normal 1.0 -9.167552697428848e-16 1.0560373472930899e-15
  outer loop
    vertex -11.750000000000016 20.000000000000007 -0.0025711577486515393
    vertex -11.750000000000014 24.755108364177282 -1.399999999999999
    vertex -11.750000000000016 27.18779117882941 2.6135708814664156
  endloop
endfacet
facet normal 1.0 -9.167552697428848e-16 1.0560373472930899e-15
  outer loop
    vertex -11.750000000000016 27.18779117882941 2.6135708814664156
    vertex -11.750000000000014 24.755108364177282 -1.399999999999999
    vertex -11.75000000000001 25.339182510890847 -0.8389002451687783
  endloop
endfacet
facet normal 1.0 -9.167552697428848e-16 1.0560373472930899e-15
  outer loop
    vertex -11.750000000000016 27.18779117882941 2.6135708814664156
    vertex -11.75000000000001 25.339182510890847 -0.8389002451687783
    vertex -11.75000000000001 25.973270934892447 -0.05192757568849625
  endloop
endfacet
facet normal 1.0 -9.167552697428848e-16 1.0560373472930899e-15
  outer loop
    vertex -11.750000000000016 27.18779117882941 2.6135708814664156
    vertex -11.75000000000001 25.973270934892447 -0.05192757568849625
    vertex -11.75000000000001 26.50237615071303 0.809142562310264
  endloop
endfacet
facet normal 1.0 -9.167552697428848e-16 1.0560373472930899e-15
  outer loop
    vertex -11.750000000000016 27.18779117882941 2.6135708814664156
    vertex -11.75000000000001 26.50237615071303 0.809142562310264
    vertex -11.75000000000001 26.91794461668978 1.7303900654534157
  endloop
endfacet
facet normal 0.999967079430374 0.005408215103123878 -0.006049071406961135
  outer loop
    vertex -10.022261000000007 21.00221951775972 -3.2698072575631785
    vertex -10.000000000000009 20.000000000000007 -1.3999999999999992
    vertex -10.000000000000009 20.000000000000007 -3.3999999999999986
  endloop
endfacet
facet normal 0.999967079430374 0.005408215103123878 -0.006049071406961135
  outer loop
    vertex -10.000000000000009 20.000000000000007 -1.3999999999999992
    vertex -10.022261000000007 21.00221951775972 -3.2698072575631785
    vertex -10.022261000000011 24.755108364177282 -1.3999999999999986
  endloop
endfacet
facet normal 0.999967079430374 0.005408215103123878 -0.006049071406961135
  outer loop
    vertex -10.022261000000011 24.755108364177282 -1.3999999999999986
    vertex -10.022261000000007 21.00221951775972 -3.2698072575631785
    vertex -10.022261000000007 21.97981809581197 -3.0134966410214408
  endloop
endfacet
facet normal 0.999967079430374 0.005408215103123878 -0.006049071406961135
  outer loop
    vertex -10.022261000000011 24.755108364177282 -1.3999999999999986
    vertex -10.022261000000007 21.97981809581197 -3.0134966410214408
    vertex -10.022261000000007 22.916991826130726 -2.6352116807571404
  endloop
endfacet
facet normal 0.999967079430374 0.005408215103123878 -0.006049071406961135
  outer loop
    vertex -10.022261000000011 24.755108364177282 -1.3999999999999986
    vertex -10.022261000000007 22.916991826130726 -2.6352116807571404
    vertex -10.022261000000007 23.798590310821837 -2.141067750558503
  endloop
endfacet
facet normal 0.999967079430374 0.005408215103123878 -0.006049071406961135
  outer loop
    vertex -10.022261000000011 24.755108364177282 -1.3999999999999986
    vertex -10.022261000000007 23.798590310821837 -2.141067750558503
    vertex -10.022261000000007 24.61036158422093 -1.5390532061778606
  endloop
endfacet
facet normal -1.5105725401698064e-16 -9.301598865675309e-17 1.0
  outer loop
    vertex -10.000000000000009 20.000000000000007 -1.3999999999999992
    vertex -11.750000000000014 24.755108364177282 -1.399999999999999
    vertex -11.750000000000016 20.000000000000007 -1.3999999999999992
  endloop
endfacet
facet normal -1.5105725401698064e-16 -9.301598865675309e-17 1.0
  outer loop
    vertex -11.750000000000014 24.755108364177282 -1.399999999999999
    vertex -10.000000000000009 20.000000000000007 -1.3999999999999992
    vertex -10.022261000000011 24.755108364177282 -1.3999999999999986
  endloop
endfacet
facet normal -1.0 -6.381391665736108e-16 4.2631065365354006e-16
  outer loop
    vertex 11.750000000000012 27.187791178829386 2.613570881466415
    vertex 11.750000000000014 20.000000000000007 -1.4
    vertex 11.750000000000014 20.000000000000004 -0.0025711577486522376
  endloop
endfacet
facet normal -1.0 -6.381391665736108e-16 4.2631065365354006e-16
  outer loop
    vertex 11.750000000000014 20.000000000000007 -1.4
    vertex 11.750000000000012 27.187791178829386 2.613570881466415
    vertex 11.750000000000012 24.755108364177232 -1.4000000000000004
  endloop
endfacet
facet normal -1.0 -6.381391665736108e-16 4.2631065365354006e-16
  outer loop
    vertex 11.750000000000012 24.755108364177232 -1.4000000000000004
    vertex 11.750000000000012 27.187791178829386 2.613570881466415
    vertex 11.750000000000009 25.339182510890783 -0.8389002451687786
  endloop
endfacet
facet normal -1.0 -6.381391665736108e-16 4.2631065365354006e-16
  outer loop
    vertex 11.750000000000009 25.339182510890783 -0.8389002451687786
    vertex 11.750000000000012 27.187791178829386 2.613570881466415
    vertex 11.750000000000009 25.97327093489239 -0.051927575688496604
  endloop
endfacet
facet normal -1.0 -6.381391665736108e-16 4.2631065365354006e-16
  outer loop
    vertex 11.750000000000009 25.97327093489239 -0.051927575688496604
    vertex 11.750000000000012 27.187791178829386 2.613570881466415
    vertex 11.750000000000009 26.502376150712987 0.8091425623102637
  endloop
endfacet
facet normal -1.0 -6.381391665736108e-16 4.2631065365354006e-16
  outer loop
    vertex 11.750000000000009 26.502376150712987 0.8091425623102637
    vertex 11.750000000000012 27.187791178829386 2.613570881466415
    vertex 11.750000000000009 26.91794461668974 1.7303900654534152
  endloop
endfacet
facet normal -1.0 1.8156166015413137e-16 3.200929562232316e-16
  outer loop
    vertex 10.000000000000012 24.755108364177232 -1.3999999999999992
    vertex 10.00000000000001 20.000000000000007 -3.3999999999999995
    vertex 10.00000000000001 20.000000000000007 -1.4
  endloop
endfacet
facet normal -1.0 1.8156166015413137e-16 3.200929562232316e-16
  outer loop
    vertex 10.00000000000001 20.000000000000007 -3.3999999999999995
    vertex 10.000000000000012 24.755108364177232 -1.3999999999999992
    vertex 10.00000000000001 21.00221951775973 -3.2698072575631794
  endloop
endfacet
facet normal -1.0 1.8156166015413137e-16 3.200929562232316e-16
  outer loop
    vertex 10.00000000000001 21.00221951775973 -3.2698072575631794
    vertex 10.000000000000012 24.755108364177232 -1.3999999999999992
    vertex 10.00000000000001 21.97981809581197 -3.013496641021441
  endloop
endfacet
facet normal -1.0 1.8156166015413137e-16 3.200929562232316e-16
  outer loop
    vertex 10.00000000000001 21.97981809581197 -3.013496641021441
    vertex 10.000000000000012 24.755108364177232 -1.3999999999999992
    vertex 10.00000000000001 22.91699182613074 -2.635211680757141
  endloop
endfacet
facet normal -1.0 1.8156166015413137e-16 3.200929562232316e-16
  outer loop
    vertex 10.00000000000001 22.91699182613074 -2.635211680757141
    vertex 10.000000000000012 24.755108364177232 -1.3999999999999992
    vertex 10.00000000000001 23.798590310821822 -2.1410677505585034
  endloop
endfacet
facet normal -1.0 1.8156166015413137e-16 3.200929562232316e-16
  outer loop
    vertex 10.00000000000001 23.798590310821822 -2.1410677505585034
    vertex 10.000000000000012 24.755108364177232 -1.3999999999999992
    vertex 10.00000000000001 24.61036158422088 -1.5390532061778603
  endloop
endfacet
facet normal 3.0213926598727407e-16 -3.706496080867761e-17 1.0
  outer loop
    vertex 11.750000000000014 20.000000000000007 -1.4
    vertex 10.000000000000012 24.755108364177232 -1.3999999999999992
    vertex 10.00000000000001 20.000000000000007 -1.4
  endloop
endfacet
facet normal 3.0213926598727407e-16 -3.706496080867761e-17 1.0
  outer loop
    vertex 10.000000000000012 24.755108364177232 -1.3999999999999992
    vertex 11.750000000000014 20.000000000000007 -1.4
    vertex 11.750000000000012 24.755108364177232 -1.4000000000000004
  endloop
endfacet
facet normal 3.995433322304598e-05 0.9566197979834207 -0.2913392532938379
  outer loop
    vertex 11.750000000000012 27.187791178829386 2.613570881466415
    vertex 12.75000000000001 26.91794461668974 1.7303900654534152
    vertex 11.750000000000009 26.91794461668974 1.7303900654534152
  endloop
endfacet
facet normal 3.995433322304598e-05 0.9566197979834207 -0.2913392532938379
  outer loop
    vertex 12.75000000000001 26.91794461668974 1.7303900654534152
    vertex 11.750000000000012 27.187791178829386 2.613570881466415
    vertex 12.75000000000001 27.213258231996573 2.6969220000402516
  endloop
endfacet
facet normal 3.995433322304598e-05 0.9566197979834207 -0.2913392532938379
  outer loop
    vertex 12.75000000000001 27.213258231996573 2.6969220000402516
    vertex 11.750000000000012 27.187791178829386 2.613570881466415
    vertex 12.299214303516862 27.210830645392164 2.697513910602408
  endloop
endfacet
facet normal -0.0055293979773248965 0.9856879728354966 -0.1684893051960803
  outer loop
    vertex 12.75000000000001 27.225320936933617 2.7674906522313725
    vertex 12.75000000000001 27.213258231996573 2.6969220000402516
    vertex 12.299214303516862 27.210830645392164 2.697513910602408
  endloop
endfacet
facet normal -3.99543332195762e-05 0.9566197979834237 -0.29133925329382765
  outer loop
    vertex -12.750000000000016 27.2132582319966 2.696922000040252
    vertex -11.75000000000001 26.91794461668978 1.7303900654534157
    vertex -12.750000000000016 26.91794461668978 1.7303900654534157
  endloop
endfacet
facet normal -3.99543332195762e-05 0.9566197979834237 -0.29133925329382765
  outer loop
    vertex -11.75000000000001 26.91794461668978 1.7303900654534157
    vertex -12.750000000000016 27.2132582319966 2.696922000040252
    vertex -11.750000000000016 27.18779117882941 2.6135708814664156
  endloop
endfacet
facet normal -3.99543332195762e-05 0.9566197979834237 -0.29133925329382765
  outer loop
    vertex -11.750000000000016 27.18779117882941 2.6135708814664156
    vertex -12.750000000000016 27.2132582319966 2.696922000040252
    vertex -12.299214303516846 27.210830645392196 2.6975139106024084
  endloop
endfacet
facet normal 0.005529397977312441 0.985687972835486 -0.16848930519614208
  outer loop
    vertex -12.750000000000016 27.22532093693365 2.767490652231379
    vertex -12.299214303516846 27.210830645392196 2.6975139106024084
    vertex -12.750000000000016 27.2132582319966 2.696922000040252
  endloop
endfacet
facet normal -6.062132138265548e-19 0.3420201433256681 -0.9396926207859086
  outer loop
    vertex 10.499788977565567 28.184749849438862 2.9602473295146123
    vertex -10.50000275039859 27.187791178829386 2.613570881466409
    vertex -10.500002750398592 28.175384027051958 2.9730252817936034
  endloop
endfacet
facet normal -6.062132138265548e-19 0.3420201433256681 -0.9396926207859086
  outer loop
    vertex -10.50000275039859 27.187791178829386 2.613570881466409
    vertex 10.499788977565567 28.184749849438862 2.9602473295146123
    vertex 2.8199664825478975e-15 27.187791178829386 2.613570881466409
  endloop
endfacet
facet normal -6.062132138265548e-19 0.3420201433256681 -0.9396926207859086
  outer loop
    vertex 2.8199664825478975e-15 27.187791178829386 2.613570881466409
    vertex 10.499788977565567 28.184749849438862 2.9602473295146123
    vertex 10.50000183360579 27.187791178829386 2.613570881466409
  endloop
endfacet
facet normal 4.1947038537895555e-05 -0.36252153990467895 0.9319753920279152
  outer loop
    vertex 3.1585890108068068e-15 28.003923767282565 5.977367781102559
    vertex 9.999113126953278 28.953893893812232 6.346438899172374
    vertex -0.0008868730467313815 28.935898780124184 6.339889213427679
  endloop
endfacet
facet normal 4.1947038537895555e-05 -0.36252153990467895 0.9319753920279152
  outer loop
    vertex 9.999113126953278 28.953893893812232 6.346438899172374
    vertex 3.1585890108068068e-15 28.003923767282565 5.977367781102559
    vertex 10.00000000000001 28.02191888097061 5.983917466847254
  endloop
endfacet
facet normal 0.7070493708551306 -0.2557777664063074 0.6592866761777948
  outer loop
    vertex 10.500001833605786 28.194278901374904 5.514561521972721
    vertex 9.999113126953278 28.953893893812232 6.346438899172374
    vertex 10.00000000000001 28.02191888097061 5.983917466847254
  endloop
endfacet
facet normal 0.7070493708551306 -0.2557777664063074 0.6592866761777948
  outer loop
    vertex 9.999113126953278 28.953893893812232 6.346438899172374
    vertex 10.500001833605786 28.194278901374904 5.514561521972721
    vertex 10.499114960559051 29.126253914216523 5.8770829542978404
  endloop
endfacet
facet normal -0.7070202598588887 -0.2570498462268446 0.6588229873826696
  outer loop
    vertex -10.001022348172793 28.931075388465985 6.338013000431218
    vertex -10.500002750398592 28.175384027051958 5.507684350142536
    vertex -10.000000000000018 28.003923767282604 5.977367781102571
  endloop
endfacet
facet normal -0.7070202598588887 -0.2570498462268446 0.6588229873826696
  outer loop
    vertex -10.500002750398592 28.175384027051958 5.507684350142536
    vertex -10.001022348172793 28.931075388465985 6.338013000431218
    vertex -10.501025098571368 29.102535648235342 5.868329569471182
  endloop
endfacet
facet normal -3.904473344210255e-11 -0.36252157453179185 0.9319753795025868
  outer loop
    vertex -10.000000000000018 28.003923767282604 5.977367781102571
    vertex -0.0008868730467313815 28.935898780124184 6.339889213427679
    vertex -10.001022348172793 28.931075388465985 6.338013000431218
  endloop
endfacet
facet normal -3.904473344210255e-11 -0.36252157453179185 0.9319753795025868
  outer loop
    vertex -0.0008868730467313815 28.935898780124184 6.339889213427679
    vertex -10.000000000000018 28.003923767282604 5.977367781102571
    vertex 3.1585890108068068e-15 28.003923767282565 5.977367781102559
  endloop
endfacet
facet normal -0.0007243235033134064 0.34201990999985205 -0.9396924265519839
  outer loop
    vertex 10.499648298449067 28.81130648553238 3.188295295134621
    vertex -10.500107036727034 28.639854467042287 3.1420786966466103
    vertex -10.500143429515093 28.801940663145512 3.2010732474136177
  endloop
endfacet
facet normal -0.0007243235033134064 0.34201990999985205 -0.9396924265519839
  outer loop
    vertex -10.500107036727034 28.639854467042287 3.1420786966466103
    vertex 10.499648298449067 28.81130648553238 3.188295295134621
    vertex -10.500002750398592 28.175384027051958 2.9730252817936034
  endloop
endfacet
facet normal -0.0007243235033134064 0.34201990999985205 -0.9396924265519839
  outer loop
    vertex -10.500002750398592 28.175384027051958 2.9730252817936034
    vertex 10.499648298449067 28.81130648553238 3.188295295134621
    vertex 10.499788977565567 28.184749849438862 2.9602473295146123
  endloop
endfacet
facet normal -0.001089866238880923 0.9324310498525812 0.36134630129889933
  outer loop
    vertex -10.002296337087182 29.86484425588773 6.695887390666348
    vertex -0.0022963370871631078 30.055648952607374 6.233245734592547
    vertex -10.502299087485758 30.036304515657083 6.2262039597063135
  endloop
endfacet
facet normal -0.001089866238880923 0.9324310498525812 0.36134630129889933
  outer loop
    vertex -0.0022963370871631078 30.055648952607374 6.233245734592547
    vertex -10.002296337087182 29.86484425588773 6.695887390666348
    vertex -0.0020277754278140723 29.8661475116178 6.696142399852301
  endloop
endfacet
facet normal -0.7070530930612635 -0.25391573999024436 0.6600020610404992
  outer loop
    vertex -10.002296337087182 29.86484425588773 6.695887390666348
    vertex -10.501025098571368 29.102535648235342 5.868329569471182
    vertex -10.001022348172793 28.931075388465985 6.338013000431218
  endloop
endfacet
facet normal -0.7070530930612635 -0.25391573999024436 0.6600020610404992
  outer loop
    vertex -10.501025098571368 29.102535648235342 5.868329569471182
    vertex -10.002296337087182 29.86484425588773 6.695887390666348
    vertex -10.502299087485758 30.036304515657083 6.2262039597063135
  endloop
endfacet
facet normal -2.57805908656135e-06 -0.35787468372480047 0.9337696240198798
  outer loop
    vertex -10.001022348172793 28.931075388465985 6.338013000431218
    vertex -0.0020277754278140723 29.8661475116178 6.696142399852301
    vertex -10.002296337087182 29.86484425588773 6.695887390666348
  endloop
endfacet
facet normal -2.57805908656135e-06 -0.35787468372480047 0.9337696240198798
  outer loop
    vertex -0.0020277754278140723 29.8661475116178 6.696142399852301
    vertex -10.001022348172793 28.931075388465985 6.338013000431218
    vertex -0.0008868730467313815 28.935898780124184 6.339889213427679
  endloop
endfacet
facet normal -0.0009521464482050469 0.9324544664454314 0.36128625966552763
  outer loop
    vertex -0.0020277754278140723 29.8661475116178 6.696142399852301
    vertex 10.49797405817797 30.05650264571014 6.2333361407224634
    vertex -0.0022963370871631078 30.055648952607374 6.233245734592547
  endloop
endfacet
facet normal -0.0009521464482050469 0.9324544664454314 0.36128625966552763
  outer loop
    vertex 10.49797405817797 30.05650264571014 6.2333361407224634
    vertex -0.0020277754278140723 29.8661475116178 6.696142399852301
    vertex 9.997972224572194 29.88414262530585 6.702692085596997
  endloop
endfacet
facet normal 3.192137451958598e-05 -0.35763647686654365 0.9338608833201615
  outer loop
    vertex -0.0008868730467313815 28.935898780124184 6.339889213427679
    vertex 9.997972224572194 29.88414262530585 6.702692085596997
    vertex -0.0020277754278140723 29.8661475116178 6.696142399852301
  endloop
endfacet
facet normal 3.192137451958598e-05 -0.35763647686654365 0.9338608833201615
  outer loop
    vertex 9.997972224572194 29.88414262530585 6.702692085596997
    vertex -0.0008868730467313815 28.935898780124184 6.339889213427679
    vertex 9.999113126953278 28.953893893812232 6.346438899172374
  endloop
endfacet
facet normal 0.7070792921560954 -0.2521405884025718 0.6606542199093561
  outer loop
    vertex 10.499114960559051 29.126253914216523 5.8770829542978404
    vertex 9.997972224572194 29.88414262530585 6.702692085596997
    vertex 9.999113126953278 28.953893893812232 6.346438899172374
  endloop
endfacet
facet normal 0.7070792921560954 -0.2521405884025718 0.6606542199093561
  outer loop
    vertex 9.997972224572194 29.88414262530585 6.702692085596997
    vertex 10.499114960559051 29.126253914216523 5.8770829542978404
    vertex 10.49797405817797 30.05650264571014 6.2333361407224634
  endloop
endfacet
facet normal -0.0007023599048855891 0.925464247071903 -0.37883430953676844
  outer loop
    vertex -10.500143429515093 28.801940663145512 3.2010732474136177
    vertex 10.49797405817797 30.05650264571014 6.2333361407224634
    vertex 10.499648298449067 28.81130648553238 3.188295295134621
  endloop
endfacet
facet normal -0.0007023599048855891 0.925464247071903 -0.37883430953676844
  outer loop
    vertex 10.49797405817797 30.05650264571014 6.2333361407224634
    vertex -10.500143429515093 28.801940663145512 3.2010732474136177
    vertex -10.502299087485758 30.036304515657083 6.2262039597063135
  endloop
endfacet
facet normal -0.0007023599048855891 0.925464247071903 -0.37883430953676844
  outer loop
    vertex 10.49797405817797 30.05650264571014 6.2333361407224634
    vertex -10.502299087485758 30.036304515657083 6.2262039597063135
    vertex -0.0022963370871631078 30.055648952607374 6.233245734592547
  endloop
endfacet
facet normal 1.0058304341988801e-15 0.34202014332566855 -0.9396926207859086
  outer loop
    vertex -10.500143429515093 28.801940663145512 3.2010732474136177
    vertex -10.50000275039859 27.187791178829386 2.613570881466409
    vertex -11.750000000000016 27.18779117882941 2.6135708814664156
  endloop
endfacet
facet normal 1.0058304341988801e-15 0.34202014332566855 -0.9396926207859086
  outer loop
    vertex -10.50000275039859 27.187791178829386 2.613570881466409
    vertex -10.500143429515093 28.801940663145512 3.2010732474136177
    vertex -10.500107036727034 28.639854467042287 3.1420786966466103
  endloop
endfacet
facet normal 1.0058304341988801e-15 0.34202014332566855 -0.9396926207859086
  outer loop
    vertex -10.50000275039859 27.187791178829386 2.613570881466409
    vertex -10.500107036727034 28.639854467042287 3.1420786966466103
    vertex -10.500002750398592 28.175384027051958 2.9730252817936034
  endloop
endfacet
facet normal -0.4990273735361084 0.8022379384092352 -0.3276979869308839
  outer loop
    vertex -11.000000000000016 29.413877802029823 5.460352613705863
    vertex -10.500143429515093 28.801940663145512 3.2010732474136177
    vertex -12.750000000000016 27.22532093693365 2.767490652231379
  endloop
endfacet
facet normal -0.4990273735361084 0.8022379384092352 -0.3276979869308839
  outer loop
    vertex -10.500143429515093 28.801940663145512 3.2010732474136177
    vertex -11.000000000000016 29.413877802029823 5.460352613705863
    vertex -10.502299087485758 30.036304515657083 6.2262039597063135
  endloop
endfacet
facet normal -0.11985245361627847 0.4201896203509 -0.8994865603840472
  outer loop
    vertex -10.500143429515093 28.801940663145512 3.2010732474136177
    vertex -11.750000000000016 27.18779117882941 2.6135708814664156
    vertex -12.299214303516846 27.210830645392196 2.6975139106024084
  endloop
endfacet
facet normal -0.12544713268382499 0.4254844907169679 -0.8962287459464405
  outer loop
    vertex -10.500143429515093 28.801940663145512 3.2010732474136177
    vertex -12.299214303516846 27.210830645392196 2.6975139106024084
    vertex -12.750000000000016 27.22532093693365 2.767490652231379
  endloop
endfacet
facet normal -0.7044729145803315 -0.2527260351131008 0.6632099696164895
  outer loop
    vertex -11.000000000000016 29.413877802029823 5.460352613705863
    vertex -12.750000000000016 27.22532093693365 2.767490652231379
    vertex -11.000000000000016 27.426045914879214 4.702859671310151
  endloop
endfacet
facet normal -0.7044729145803318 -0.2527260351131007 0.6632099696164891
  outer loop
    vertex -10.751149543742887 28.73117521526815 5.4645318155082325
    vertex -11.000000000000016 29.413877802029823 5.460352613705863
    vertex -11.000000000000016 27.426045914879214 4.702859671310151
  endloop
endfacet
facet normal -0.7044729145803318 -0.2527260351131007 0.6632099696164891
  outer loop
    vertex -11.000000000000016 29.413877802029823 5.460352613705863
    vertex -10.751149543742887 28.73117521526815 5.4645318155082325
    vertex -10.502299087485758 30.036304515657083 6.2262039597063135
  endloop
endfacet
facet normal -0.6923864421574885 -0.26063246610472407 0.6728088378794268
  outer loop
    vertex -10.751149543742887 28.73117521526815 5.4645318155082325
    vertex -11.000000000000016 27.426045914879214 4.702859671310151
    vertex -10.500002750398592 28.175384027051958 5.507684350142536
  endloop
endfacet
facet normal -0.6941710094820717 -0.2616114194414262 0.6705863664081486
  outer loop
    vertex -10.501025098571368 29.102535648235342 5.868329569471182
    vertex -10.751149543742887 28.73117521526815 5.4645318155082325
    vertex -10.500002750398592 28.175384027051958 5.507684350142536
  endloop
endfacet
facet normal -0.6976192682388624 -0.25723569660714257 0.6686981030127963
  outer loop
    vertex -10.502299087485758 30.036304515657083 6.2262039597063135
    vertex -10.751149543742887 28.73117521526815 5.4645318155082325
    vertex -10.501025098571368 29.102535648235342 5.868329569471182
  endloop
endfacet
facet normal 4.804455555485645e-15 0.32844305104332716 -0.944523775360552
  outer loop
    vertex 11.750000000000012 27.187791178829386 2.613570881466415
    vertex 10.50000183360579 27.187791178829386 2.613570881466409
    vertex 10.499788977565567 28.184749849438862 2.9602473295146123
  endloop
endfacet
facet normal 0.012167730516421851 0.341997236125963 -0.9396221776949936
  outer loop
    vertex 11.750000000000012 27.187791178829386 2.613570881466415
    vertex 10.499788977565567 28.184749849438862 2.9602473295146123
    vertex 10.499648298449067 28.81130648553238 3.188295295134621
  endloop
endfacet
facet normal 0.1262339203372996 0.4178309493694919 -0.8997123401983911
  outer loop
    vertex 12.75000000000001 27.225320936933617 2.7674906522313725
    vertex 12.299214303516862 27.210830645392164 2.697513910602408
    vertex 10.499648298449067 28.81130648553238 3.188295295134621
  endloop
endfacet
facet normal 0.1206924466864956 0.41257534359361553 -0.9028925291370161
  outer loop
    vertex 12.299214303516862 27.210830645392164 2.697513910602408
    vertex 11.750000000000012 27.187791178829386 2.613570881466415
    vertex 10.499648298449067 28.81130648553238 3.188295295134621
  endloop
endfacet
facet normal 0.5028106302717454 0.8001827048139468 -0.3269389989009667
  outer loop
    vertex 10.49797405817797 30.05650264571014 6.2333361407224634
    vertex 12.75000000000001 27.225320936933617 2.7674906522313725
    vertex 10.499648298449067 28.81130648553238 3.188295295134621
  endloop
endfacet
facet normal 0.693739319464042 -0.2586850633927797 0.6721664932195307
  outer loop
    vertex 10.74898702908899 28.74127428029466 5.468097906016302
    vertex 10.500001833605786 28.194278901374904 5.514561521972721
    vertex 11.00000000000001 27.426045914879182 4.702859671310143
  endloop
endfacet
facet normal 0.6957544495893726 -0.25981672484712454 0.6696424533781462
  outer loop
    vertex 10.499114960559051 29.126253914216523 5.8770829542978404
    vertex 10.500001833605786 28.194278901374904 5.514561521972721
    vertex 10.74898702908899 28.74127428029466 5.468097906016302
  endloop
endfacet
facet normal 0.6998486090955901 -0.25470790847774555 0.6673348527582388
  outer loop
    vertex 10.49797405817797 30.05650264571014 6.2333361407224634
    vertex 10.499114960559051 29.126253914216523 5.8770829542978404
    vertex 10.74898702908899 28.74127428029466 5.468097906016302
  endloop
endfacet
facet normal 0.7047859524295615 -0.25145353520173913 0.6633610486699558
  outer loop
    vertex 12.75000000000001 27.225320936933617 2.7674906522313725
    vertex 10.74898702908899 28.74127428029466 5.468097906016302
    vertex 11.00000000000001 27.426045914879182 4.702859671310143
  endloop
endfacet
facet normal 0.7047859524295615 -0.25145353520173913 0.6633610486699558
  outer loop
    vertex 10.74898702908899 28.74127428029466 5.468097906016302
    vertex 12.75000000000001 27.225320936933617 2.7674906522313725
    vertex 10.49797405817797 30.05650264571014 6.2333361407224634
  endloop
endfacet
endsolid ko-trigger-gaurd-cover-05
